<?xml version="1.0" encoding="UTF-8" standalone="no"?>
<svg width="31px" height="33px" viewBox="0 0 31 33" version="1.1" xmlns="http://www.w3.org/2000/svg" xmlns:xlink="http://www.w3.org/1999/xlink">
    <!-- Generator: sketchtool 3.8.2 (29753) - http://www.bohemiancoding.com/sketch -->
    <title>EFF262E1-1B36-4011-A0E1-CFDD4C649A22</title>
    <desc>Created with sketchtool.</desc>
    <defs></defs>
    <g id="Homepage" stroke="none" stroke-width="1" fill="none" fill-rule="evenodd">
        <g id="0.1-Homepage---States" transform="translate(-281.000000, -1443.000000)">
            <g id="icn_Veg" transform="translate(281.000000, 1444.000000)">
                <path d="M0.7715,29.5668 L3.5305,30.3058 C3.5305,30.3058 3.6485,24.2378 5.4345,22.4448 C9.9165,25.6258 18.6895,27.0418 23.4095,22.3208 C28.5885,17.1438 29.8025,0.1138 29.8025,0.1138 C29.8025,0.1138 26.2865,1.9468 20.6705,2.4288 C15.3735,2.8838 10.4685,3.6308 7.5945,6.5048 C3.1585,10.9418 2.0485,17.2568 4.5735,21.7198 C4.5735,21.7198 1.6085,25.8548 0.7715,29.5668" id="Fill-1" fill="#FCFCFC"></path>
                <path d="M0.7715,29.5668 L3.5305,30.3058 C3.5305,30.3058 3.6485,24.2378 5.4345,22.4448 C9.9165,25.6258 18.6895,27.0418 23.4095,22.3208 C28.5885,17.1438 29.8025,0.1138 29.8025,0.1138 C29.8025,0.1138 26.2865,1.9468 20.6705,2.4288 C15.3735,2.8838 10.4685,3.6308 7.5945,6.5048 C3.1585,10.9418 2.0485,17.2568 4.5735,21.7198 C4.5735,21.7198 1.6085,25.8548 0.7715,29.5668 L0.7715,29.5668 Z" id="Stroke-3" stroke="#39424E" stroke-width="1.3"></path>
                <path d="M4.6412,21.8736 C4.6172,21.7796 4.2332,21.1886 4.2672,21.0986 C5.7322,17.2786 8.2242,15.3016 11.5592,12.8486 C13.7312,11.2506 18.3162,9.6556 18.4342,9.5986 C17.3492,10.1336 13.2032,12.8996 11.6842,14.0566 C8.9342,16.1506 7.5252,18.5636 5.7262,22.0146 C5.5922,22.2706 5.5522,22.1436 5.4252,22.3926 C5.2222,22.2536 4.6642,21.9496 4.6412,21.8736" id="Fill-5" fill="#39424E"></path>
            </g>
        </g>
    </g>
</svg>