<?xml version="1.0" encoding="UTF-8" standalone="no"?>
<svg width="28px" height="33px" viewBox="0 0 28 33" version="1.1" xmlns="http://www.w3.org/2000/svg" xmlns:xlink="http://www.w3.org/1999/xlink">
    <!-- Generator: sketchtool 3.8.2 (29753) - http://www.bohemiancoding.com/sketch -->
    <title>6AA238BA-BD98-4119-AD32-8ADB4B8C0946</title>
    <desc>Created with sketchtool.</desc>
    <defs>
        <path d="M16.687,0.783 C14.347,1.13 12.295,2.406 10.754,4.476 C7.157,9.304 7.022,15.113 8.722,18.127 L8.766,18.205 L4.52,25.141 L4.4,25.097 C4.059,24.969 3.701,24.904 3.336,24.904 C3.186,24.904 3.037,24.915 2.886,24.936 C2.09,25.054 1.387,25.474 0.907,26.118 C0.425,26.765 0.225,27.56 0.344,28.358 C0.464,29.155 0.887,29.858 1.537,30.337 C1.935,30.632 2.388,30.817 2.88,30.889 L2.964,30.901 L3,30.976 C3.211,31.425 3.521,31.802 3.919,32.097 C4.445,32.485 5.067,32.691 5.717,32.691 C5.866,32.691 6.018,32.679 6.168,32.657 C6.97,32.539 7.674,32.117 8.157,31.47 C8.951,30.402 8.943,28.918 8.136,27.861 L8.058,27.76 L13.492,21.697 L13.581,21.718 C14.115,21.839 14.682,21.901 15.266,21.901 C15.699,21.901 16.149,21.867 16.605,21.801 C20,21.299 23.82,18.894 26.113,15.815 C29.3,11.536 28.382,6.046 23.932,2.76 C22.096,1.406 20.031,0.69 17.961,0.69 C17.534,0.69 17.105,0.721 16.687,0.783 L16.687,0.783 Z M10.661,22.822 C10.454,22.408 10.136,22.036 9.742,21.746 C9.371,21.47 8.961,21.288 8.521,21.2 L8.303,21.157 L9.929,18.5 C10.043,18.311 10.04,18.07 9.916,17.886 C7.656,14.517 9.068,8.654 11.674,5.155 C13.029,3.334 14.821,2.213 16.854,1.912 C17.217,1.859 17.589,1.832 17.96,1.832 C19.783,1.832 21.613,2.47 23.248,3.678 C27.228,6.617 28.027,11.327 25.191,15.135 C23.068,17.987 19.549,20.212 16.436,20.672 C16.037,20.732 15.644,20.76 15.268,20.76 C14.63,20.76 14.025,20.676 13.468,20.507 C13.426,20.495 13.383,20.487 13.301,20.487 C13.276,20.487 13.248,20.488 13.216,20.489 C13.083,20.508 12.962,20.574 12.872,20.675 L10.764,23.026 L10.661,22.822 L10.661,22.822 Z M4.843,26.464 C4.997,26.431 5.131,26.336 5.213,26.202 L7.569,22.354 L7.63,22.339 C7.748,22.308 7.872,22.292 7.998,22.292 C8.366,22.292 8.732,22.42 9.06,22.662 C9.548,23.024 9.823,23.546 9.755,24.151 L6.839,27.404 C6.736,27.521 6.683,27.677 6.696,27.83 C6.708,27.985 6.784,28.13 6.905,28.229 C7.688,28.863 7.832,29.989 7.234,30.792 C6.888,31.256 6.316,31.534 5.703,31.534 C5.296,31.534 4.915,31.412 4.601,31.181 C4.276,30.939 4.04,30.598 3.923,30.193 C3.853,29.95 3.626,29.78 3.372,29.78 L3.337,29.781 C2.924,29.781 2.536,29.657 2.219,29.422 C1.814,29.121 1.551,28.684 1.476,28.192 C1.402,27.697 1.526,27.203 1.826,26.799 C2.172,26.336 2.742,26.06 3.352,26.06 C3.735,26.06 4.096,26.169 4.4,26.376 C4.496,26.441 4.607,26.475 4.724,26.475 C4.764,26.475 4.803,26.472 4.843,26.464 L4.843,26.464 Z" id="path-1"></path>
    </defs>
    <g id="Homepage" stroke="none" stroke-width="1" fill="none" fill-rule="evenodd">
        <g id="0.1-Homepage---States" transform="translate(-202.000000, -1443.000000)">
            <g id="icn_NonVeg" transform="translate(202.000000, 1443.000000)">
                <mask id="mask-2" fill="white">
                    <use xlink:href="#path-1"></use>
                </mask>
                <g id="Clip-2"></g>
                <polygon id="Fill-1" fill="#39424E" mask="url(#mask-2)" points="-4.69 37.691 33.003 37.691 33.003 -4.31 -4.69 -4.31"></polygon>
            </g>
        </g>
    </g>
</svg>