<?xml version="1.0" encoding="UTF-8" standalone="no"?>
<svg width="28px" height="31px" viewBox="0 0 28 31" version="1.1" xmlns="http://www.w3.org/2000/svg" xmlns:xlink="http://www.w3.org/1999/xlink">
    <!-- Generator: sketchtool 3.8.2 (29753) - http://www.bohemiancoding.com/sketch -->
    <title>2CE704F5-F1F6-4BF9-AFE0-15EDDB61256B</title>
    <desc>Created with sketchtool.</desc>
    <defs></defs>
    <g id="Homepage" stroke="none" stroke-width="1" fill="none" fill-rule="evenodd">
        <g id="0.1-Homepage---States" transform="translate(-367.000000, -1444.000000)">
            <g id="icn_ContainsEgg" transform="translate(368.000000, 1444.000000)">
                <path d="M22.2344,2.4841 C21.9214,2.2571 21.5804,2.0481 21.2224,1.8661 C20.3524,1.4221 19.4664,1.2081 18.5844,1.1621 C18.0404,1.1331 17.4984,1.1691 16.9614,1.2561 C14.9554,1.5791 13.0254,2.6081 11.3874,3.6251 C7.9904,5.7381 5.1374,8.9101 2.9074,13.0531 C2.0814,14.5871 1.4474,16.6331 1.2084,18.5261 C0.8094,21.6381 2.1764,24.9901 4.7774,27.2731 C7.5834,29.7371 12.5904,30.1601 15.7874,28.3241 C18.2624,26.9081 20.4484,24.4871 22.2884,21.1291 L22.3814,20.9561 C25.1354,15.8521 27.5274,6.3301 22.2344,2.4841 M4.8064,28.3351 C4.6074,28.1901 4.4154,28.0371 4.2314,27.8761 C1.4384,25.4161 -0.0176,21.7791 0.4294,18.3811 C0.6864,16.4031 1.3594,14.2561 2.2304,12.6401 C4.5164,8.4011 7.4424,5.1431 10.9284,2.9571 C13.6654,1.2441 17.7484,-0.8079 21.5914,1.1431 C21.9914,1.3471 22.3714,1.5781 22.7214,1.8331 C28.4214,5.9791 25.9784,15.9791 23.0984,21.3071 L23.0024,21.4871 C21.0934,24.9641 18.8124,27.4861 16.2184,28.9851 C12.9334,30.8861 7.9214,30.6011 4.8064,28.3351" id="Fill-1" fill="#39424E"></path>
                <path d="M22.2344,2.4841 C21.9214,2.2571 21.5804,2.0481 21.2224,1.8661 C20.3524,1.4221 19.4664,1.2081 18.5844,1.1621 C18.0404,1.1331 17.4984,1.1691 16.9614,1.2561 C14.9554,1.5791 13.0254,2.6081 11.3874,3.6251 C7.9904,5.7381 5.1374,8.9101 2.9074,13.0531 C2.0814,14.5871 1.4474,16.6331 1.2084,18.5261 C0.8094,21.6381 2.1764,24.9901 4.7774,27.2731 C7.5834,29.7371 12.5904,30.1601 15.7874,28.3241 C18.2624,26.9081 20.4484,24.4871 22.2884,21.1291 L22.3814,20.9561 C25.1354,15.8521 27.5274,6.3301 22.2344,2.4841 L22.2344,2.4841 Z M4.8064,28.3351 C4.6074,28.1901 4.4154,28.0371 4.2314,27.8761 C1.4384,25.4161 -0.0176,21.7791 0.4294,18.3811 C0.6864,16.4031 1.3594,14.2561 2.2304,12.6401 C4.5164,8.4011 7.4424,5.1431 10.9284,2.9571 C13.6654,1.2441 17.7484,-0.8079 21.5914,1.1431 C21.9914,1.3471 22.3714,1.5781 22.7214,1.8331 C28.4214,5.9791 25.9784,15.9791 23.0984,21.3071 L23.0024,21.4871 C21.0934,24.9641 18.8124,27.4861 16.2184,28.9851 C12.9334,30.8861 7.9214,30.6011 4.8064,28.3351 L4.8064,28.3351 Z" id="Stroke-3" stroke="#39424E" stroke-width="0.7"></path>
                <g id="Group-8" transform="translate(4.000000, 7.592200)">
                    <polyline id="Fill-5" fill="#39424E" points="1.8984 0.347 2.1044 3.272 6.3974 4.178 6.2174 11.592 5.8094 4.95 1.0144 4.313 0.9744 1.361 1.8004 0.362"></polyline>
                    <polyline id="Stroke-7" stroke="#39424E" stroke-width="0.7" points="1.8984 0.347 2.1044 3.272 6.3974 4.178 6.2174 11.592 5.8094 4.95 1.0144 4.313 0.9744 1.361 1.8004 0.362"></polyline>
                </g>
            </g>
        </g>
    </g>
</svg>