<?xml version="1.0" encoding="utf-8"?>
<!-- Generator: Adobe Illustrator 19.1.0, SVG Export Plug-In . SVG Version: 6.00 Build 0)  -->
<svg version="1.1" id="Layer_1" xmlns="http://www.w3.org/2000/svg" xmlns:xlink="http://www.w3.org/1999/xlink" x="0px" y="0px"
	 viewBox="0 0 19.4 21.6" style="enable-background:new 0 0 19.4 21.6;" xml:space="preserve">
<style type="text/css">
	.st0{fill:#E65926;}
</style>
<g id="ic_googleplay_hovered" transform="translate(19.000000, 10.000000)">
	<g id="Group-4">
		<path id="google-play" class="st0" d="M-17.7,11.2c-0.4-0.1-0.6-0.5-0.6-1V-8.1c0-0.5,0.2-0.9,0.5-1l0,0l9,10.2L-17.7,11.2
			L-17.7,11.2z M-16.4,10.9l10.9-6.1l-2.7-3L-16.4,10.9L-16.4,10.9z M-5.5-2.5l-10.7-6.1l8,9.1L-5.5-2.5L-5.5-2.5z M-4.7-2.1
			l4.2,2.4c0.8,0.4,0.8,1.2,0,1.6l-4.3,2.4l-2.8-3.2L-4.7-2.1L-4.7-2.1z"/>
	</g>
</g>
</svg>
