<?xml version="1.0" encoding="utf-8"?>
<!-- Generator: Adobe Illustrator 19.1.0, SVG Export Plug-In . SVG Version: 6.00 Build 0)  -->
<svg version="1.1" id="Layer_1" xmlns="http://www.w3.org/2000/svg" xmlns:xlink="http://www.w3.org/1999/xlink" x="0px" y="0px"
	 viewBox="0 0 17.7 23.3" style="enable-background:new 0 0 17.7 23.3;" xml:space="preserve">
<style type="text/css">
	.st0{filter:url(#Adobe_OpacityMaskFilter);}
	.st1{fill:#FFFFFF;}
	.st2{mask:url(#mask-5_1_);fill:#E65926;}
</style>
<g id="Page-1" transform="translate(26.000000, 7.000000)">
	<g id="Clip-2">
	</g>
	<defs>
		<filter id="Adobe_OpacityMaskFilter" filterUnits="userSpaceOnUse" x="-26" y="-6" width="17.1" height="22.3">
			<feColorMatrix  type="matrix" values="1 0 0 0 0  0 1 0 0 0  0 0 1 0 0  0 0 0 1 0"/>
		</filter>
	</defs>
	<mask maskUnits="userSpaceOnUse" x="-26" y="-6" width="17.1" height="22.3" id="mask-5_1_">
		<g class="st0">
			<polygon id="path-4_1_" class="st1" points="-26,16.3 -8.9,16.3 -8.9,-6 -26,-6 			"/>
		</g>
	</mask>
	<path id="Fill-1" class="st2" d="M-13.2-6c-1,0-2.3,0.7-3.2,1.6c-0.7,0.9-1.3,2.2-1.1,3.3c1.1,0.1,2.4-0.6,3.2-1.6
		C-13.6-3.4-13.2-4.7-13.2-6 M-9.5,2.2c-1.3-1.9-3.2-2.2-3.9-2.2c-1.6-0.1-3.2,1-4,1s-2.2-1-3.5-1c-1.9,0-3.4,1-4.3,2.7
		c-1.9,3.3-0.4,8.2,1.3,10.8c0.9,1.3,2,2.7,3.3,2.7c1.3,0,1.9-0.9,3.5-0.9s2,0.9,3.4,0.9s2.3-1.3,3.3-2.6c1-1.6,1.4-3,1.4-3
		s-2.9-1.1-2.9-4.3C-11.8,3.5-9.6,2.2-9.5,2.2"/>
</g>
</svg>
