<?xml version="1.0" encoding="utf-8"?>
<!-- Generator: Adobe Illustrator 19.1.0, SVG Export Plug-In . SVG Version: 6.00 Build 0)  -->
<svg version="1.1" id="Layer_1" xmlns="http://www.w3.org/2000/svg" xmlns:xlink="http://www.w3.org/1999/xlink" x="0px" y="0px"
	 viewBox="-6 5.7 17.7 23.3" style="enable-background:new -6 5.7 17.7 23.3;" xml:space="preserve">
<style type="text/css">
	.st0{fill:#FFFFFF;}
	.st1{fill:#5C6C79;}
</style>
<g>
	<polygon id="path-4_1_" class="st0" points="-6,29 11.1,29 11.1,6.7 -6,6.7 	"/>
</g>
<g id="Page-1" transform="translate(26.000000, 7.000000)">
	<g id="Clip-2">
	</g>
	<path id="Fill-1" class="st1" d="M-19.2-0.3c-1,0-2.3,0.7-3.2,1.6c-0.7,0.9-1.3,2.2-1.1,3.3c1.1,0.1,2.4-0.6,3.2-1.6
		C-19.6,2.3-19.2,1-19.2-0.3 M-15.5,7.9c-1.3-1.9-3.2-2.2-3.9-2.2c-1.6-0.1-3.2,1-4,1s-2.2-1-3.5-1c-1.9,0-3.4,1-4.3,2.7
		c-1.9,3.3-0.4,8.2,1.3,10.8c0.9,1.3,2,2.7,3.3,2.7s1.9-0.9,3.5-0.9s2,0.9,3.4,0.9s2.3-1.3,3.3-2.6c1-1.6,1.4-3,1.4-3
		s-2.9-1.1-2.9-4.3C-17.8,9.2-15.6,7.9-15.5,7.9"/>
</g>
</svg>
