<?xml version="1.0" encoding="utf-8"?>
<!-- Generator: Adobe Illustrator 19.1.0, SVG Export Plug-In . SVG Version: 6.00 Build 0)  -->
<svg version="1.1" id="Layer_1" xmlns="http://www.w3.org/2000/svg" xmlns:xlink="http://www.w3.org/1999/xlink" x="0px" y="0px"
	 viewBox="-5 6.4 19.4 21.6" style="enable-background:new -5 6.4 19.4 21.6;" xml:space="preserve">
<style type="text/css">
	.st0{fill:#5C6C79;}
</style>
<g id="ic_googleplay_hovered" transform="translate(19.000000, 10.000000)">
	<g id="Group-4">
		<path id="google-play" class="st0" d="M-22.7,17.6c-0.4-0.1-0.6-0.5-0.6-1V-1.7c0-0.5,0.2-0.9,0.5-1l0,0l9,10.2L-22.7,17.6
			L-22.7,17.6z M-21.4,17.3l10.9-6.1l-2.7-3L-21.4,17.3L-21.4,17.3z M-10.5,3.9l-10.7-6.1l8,9.1L-10.5,3.9L-10.5,3.9z M-9.7,4.3
			l4.2,2.4c0.8,0.4,0.8,1.2,0,1.6l-4.3,2.4l-2.8-3.2L-9.7,4.3L-9.7,4.3z"/>
	</g>
</g>
</svg>
