<svg width="8" height="5" viewBox="0 0 8 5" xmlns="http://www.w3.org/2000/svg" xmlns:xlink="http://www.w3.org/1999/xlink"><title>48955D97-B529-46DF-A367-97BD7ED13129</title><defs><path d="M285.03 14.173a.103.103 0 0 1-.001-.144.102.102 0 0 1 .144.001l2.789 2.79c.04.04.04.105 0 .143a.102.102 0 0 1-.143 0l-2.79-2.79zm5.797-.143c.04-.04.106-.04.144 0 .04.039.038.104-.001.143l-2.79 2.79a.103.103 0 0 1-.143 0 .102.102 0 0 1 0-.144l2.79-2.789z" id="a"/><mask id="b" x="-.5" y="-.5" width="7" height="3.992"><path fill="#fff" d="M284.5 13.5h7v3.992h-7z"/><use xlink:href="#a"/></mask></defs><g transform="translate(-284 -13)" fill="none" fill-rule="evenodd"><use fill="#E85826" xlink:href="#a"/><use stroke="#E85826" mask="url(#b)" xlink:href="#a"/></g></svg>