<?xml version="1.0" encoding="UTF-8" standalone="no"?>
<svg width="24px" height="24px" viewBox="0 0 24 24" version="1.1" xmlns="http://www.w3.org/2000/svg" xmlns:xlink="http://www.w3.org/1999/xlink">
    <!-- Generator: sketchtool 3.8.1 (29687) - http://www.bohemiancoding.com/sketch -->
    <title>5FFDBBF7-EDE5-409D-BC41-092A8C657DB5</title>
    <desc>Created with sketchtool.</desc>
    <defs></defs>
    <g id="Homepage" stroke="none" stroke-width="1" fill="none" fill-rule="evenodd">
        <g id="0.1-Homepage---States" transform="translate(-559.000000, -813.000000)" fill="#535657">
            <path d="M568.95122,834.073171 C568.95122,833.429268 568.42439,832.902439 567.780488,832.902439 C567.136585,832.902439 566.609756,833.429268 566.609756,834.073171 C566.609756,834.717073 567.136585,835.243902 567.780488,835.243902 C568.42439,835.243902 568.95122,834.717073 568.95122,834.073171 M570.121951,834.073171 C570.121951,835.360976 569.068293,836.414634 567.780488,836.414634 C566.492683,836.414634 565.439024,835.360976 565.439024,834.073171 C565.439024,832.785366 566.492683,831.731707 567.780488,831.731707 C569.068293,831.731707 570.121951,832.785366 570.121951,834.073171 M579.487805,834.073171 C579.487805,833.429268 578.960976,832.902439 578.317073,832.902439 C577.673171,832.902439 577.146341,833.429268 577.146341,834.073171 C577.146341,834.717073 577.673171,835.243902 578.317073,835.243902 C578.960976,835.243902 579.487805,834.717073 579.487805,834.073171 M580.658537,834.073171 C580.658537,835.360976 579.604878,836.414634 578.317073,836.414634 C577.029268,836.414634 575.97561,835.360976 575.97561,834.073171 C575.97561,832.785366 577.029268,831.731707 578.317073,831.731707 C579.604878,831.731707 580.658537,832.785366 580.658537,834.073171 M578.902439,827.04878 L565.263415,827.04878 L565.263415,827.165854 C565.380488,828.395122 565.204878,829.390244 566.492683,829.390244 L581.243902,829.390244 C581.595122,829.390244 581.829268,829.62439 581.829268,829.97561 C581.829268,830.326829 581.595122,830.560976 581.243902,830.560976 L565.84878,830.560976 C564.256,830.311024 564.209756,829.097561 564.034146,827.282927 L563.273171,815.22439 C563.214634,813.995122 562.160976,814.170732 560.931707,814.170732 L559.585366,814.170732 C559.234146,814.170732 559,813.936585 559,813.585366 C559,813.234146 559.234146,813 559.585366,813 L560.931707,813 C562.804878,813 564.292878,813 564.502439,815.107317 L565.146341,825.878049 L578.902439,825.878049 C579.721951,825.878049 579.780488,825.35122 580.073171,824.531707 L581.743805,818.127805 C582.016,816.823024 582.473171,817.097561 582.473171,817.097561 C582.64878,817.097561 582.765854,817.214634 582.882927,817.331707 C583,817.44878 583,817.682927 583,817.8 L581.243902,824.82439 C580.77561,826.170732 580.902634,827.054634 578.902439,827.04878" id="ic_cart_open"></path>
        </g>
    </g>
</svg>