<?xml version="1.0" encoding="UTF-8" standalone="no"?>
<svg width="24px" height="24px" viewBox="0 0 24 24" version="1.1" xmlns="http://www.w3.org/2000/svg" xmlns:xlink="http://www.w3.org/1999/xlink">
    <!-- Generator: sketchtool 3.8.1 (29687) - http://www.bohemiancoding.com/sketch -->
    <title>F111B5A9-B42F-4CA8-B589-8CB8CAF4B6FC</title>
    <desc>Created with sketchtool.</desc>
    <defs></defs>
    <g id="Homepage" stroke="none" stroke-width="1" fill="none" fill-rule="evenodd">
        <g id="0.1-Homepage---States" transform="translate(-765.000000, -813.000000)" fill="#FF883F">
            <path d="M774.95122,834.073171 C774.95122,833.429268 774.42439,832.902439 773.780488,832.902439 C773.136585,832.902439 772.609756,833.429268 772.609756,834.073171 C772.609756,834.717073 773.136585,835.243902 773.780488,835.243902 C774.42439,835.243902 774.95122,834.717073 774.95122,834.073171 M776.121951,834.073171 C776.121951,835.360976 775.068293,836.414634 773.780488,836.414634 C772.492683,836.414634 771.439024,835.360976 771.439024,834.073171 C771.439024,832.785366 772.492683,831.731707 773.780488,831.731707 C775.068293,831.731707 776.121951,832.785366 776.121951,834.073171 M785.487805,834.073171 C785.487805,833.429268 784.960976,832.902439 784.317073,832.902439 C783.673171,832.902439 783.146341,833.429268 783.146341,834.073171 C783.146341,834.717073 783.673171,835.243902 784.317073,835.243902 C784.960976,835.243902 785.487805,834.717073 785.487805,834.073171 M786.658537,834.073171 C786.658537,835.360976 785.604878,836.414634 784.317073,836.414634 C783.029268,836.414634 781.97561,835.360976 781.97561,834.073171 C781.97561,832.785366 783.029268,831.731707 784.317073,831.731707 C785.604878,831.731707 786.658537,832.785366 786.658537,834.073171 M784.902439,827.04878 L771.263415,827.04878 L771.263415,827.165854 C771.380488,828.395122 771.204878,829.390244 772.492683,829.390244 L787.243902,829.390244 C787.595122,829.390244 787.829268,829.62439 787.829268,829.97561 C787.829268,830.326829 787.595122,830.560976 787.243902,830.560976 L771.84878,830.560976 C770.256,830.311024 770.209756,829.097561 770.034146,827.282927 L769.273171,815.22439 C769.214634,813.995122 768.160976,814.170732 766.931707,814.170732 L765.585366,814.170732 C765.234146,814.170732 765,813.936585 765,813.585366 C765,813.234146 765.234146,813 765.585366,813 L766.931707,813 C768.804878,813 770.292878,813 770.502439,815.107317 L771.146341,825.878049 L784.902439,825.878049 C785.721951,825.878049 785.780488,825.35122 786.073171,824.531707 L787.743805,818.127805 C788.016,816.823024 788.473171,817.097561 788.473171,817.097561 C788.64878,817.097561 788.765854,817.214634 788.882927,817.331707 C789,817.44878 789,817.682927 789,817.8 L787.243902,824.82439 C786.77561,826.170732 786.902634,827.054634 784.902439,827.04878" id="ic_cart_hover"></path>
        </g>
    </g>
</svg>