<?xml version="1.0" encoding="UTF-8" standalone="no"?>
<svg width="24px" height="23px" viewBox="0 0 24 23" version="1.1" xmlns="http://www.w3.org/2000/svg" xmlns:xlink="http://www.w3.org/1999/xlink">
    <!-- Generator: sketchtool 39.1 (31720) - http://www.bohemiancoding.com/sketch -->
    <title>71D15BA9-F767-4915-B36C-016B0C5B9AF1</title>
    <desc>Created with sketchtool.</desc>
    <defs></defs>
    <g id="Homepage" stroke="none" stroke-width="1" fill="none" fill-rule="evenodd">
        <g id="0.1-Homepage---States" transform="translate(-792.000000, -810.000000)" stroke="#FFFFFF" stroke-width="0.3" fill="#FFFFFF">
            <g id="Cart-Button---Added" transform="translate(765.000000, 790.000000)">
                <g id="Group-2" transform="translate(28.000000, 21.000000)">
                    <path d="M9.12195122,19.0003998 C9.12195122,18.4198321 8.63902439,17.9448221 8.04878049,17.9448221 C7.45853659,17.9448221 6.97560976,18.4198321 6.97560976,19.0003998 C6.97560976,19.5809676 7.45853659,20.0559776 8.04878049,20.0559776 C8.63902439,20.0559776 9.12195122,19.5809676 9.12195122,19.0003998 M10.195122,19.0003998 C10.195122,20.1615354 9.22926829,21.1115554 8.04878049,21.1115554 C6.86829268,21.1115554 5.90243902,20.1615354 5.90243902,19.0003998 C5.90243902,17.8392643 6.86829268,16.8892443 8.04878049,16.8892443 C9.22926829,16.8892443 10.195122,17.8392643 10.195122,19.0003998 M18.7804878,19.0003998 C18.7804878,18.4198321 18.297561,17.9448221 17.7073171,17.9448221 C17.1170732,17.9448221 16.6341463,18.4198321 16.6341463,19.0003998 C16.6341463,19.5809676 17.1170732,20.0559776 17.7073171,20.0559776 C18.297561,20.0559776 18.7804878,19.5809676 18.7804878,19.0003998 M19.8536585,19.0003998 C19.8536585,20.1615354 18.8878049,21.1115554 17.7073171,21.1115554 C16.5268293,21.1115554 15.5609756,20.1615354 15.5609756,19.0003998 C15.5609756,17.8392643 16.5268293,16.8892443 17.7073171,16.8892443 C18.8878049,16.8892443 19.8536585,17.8392643 19.8536585,19.0003998 M18.2439024,12.6669332 L5.74146341,12.6669332 L5.74146341,12.772491 C5.84878049,13.8808477 5.68780488,14.7780888 6.86829268,14.7780888 L20.3902439,14.7780888 C20.7121951,14.7780888 20.9268293,14.9892043 20.9268293,15.3058776 C20.9268293,15.622551 20.7121951,15.8336665 20.3902439,15.8336665 L6.27804878,15.8336665 C4.818,15.6083007 4.77560976,14.5141943 4.61463415,12.8780488 L3.91707317,2.00559776 C3.86341463,0.897241104 2.89756098,1.05557777 1.77073171,1.05557777 L0.536585366,1.05557777 C0.214634146,1.05557777 0,0.844462215 0,0.527788884 C0,0.211115554 0.214634146,0 0.536585366,0 L1.77073171,0 C3.48780488,0 4.85180488,0 5.04390244,1.90003998 L5.63414634,11.6113555 L18.2439024,11.6113555 C18.995122,11.6113555 19.0487805,11.1363455 19.3170732,10.397441 L20.8484878,4.62343063 C21.098,3.4469892 21.5170732,3.69452219 21.5170732,3.69452219 C21.6780488,3.69452219 21.7853659,3.80007997 21.8926829,3.90563774 C22,4.01119552 22,4.22231108 22,4.32786885 L20.3902439,10.6613355 C19.9609756,11.8752499 20.0774146,12.6722111 18.2439024,12.6669332" id="ic_cart_open-copy"></path>
                </g>
            </g>
        </g>
    </g>
</svg>