<?xml version="1.0" encoding="UTF-8" standalone="no"?>
<svg width="35px" height="34px" viewBox="0 0 35 34" version="1.1" xmlns="http://www.w3.org/2000/svg" xmlns:xlink="http://www.w3.org/1999/xlink">
    <!-- Generator: sketchtool 41.2 (35397) - http://www.bohemiancoding.com/sketch -->
    <title>9637B0AC-93FA-4D2C-90C1-B7B494A221C5</title>
    <desc>Created with sketchtool.</desc>
    <defs>
        <polygon id="path-1" points="0 35 34.063 35 34.063 0.937 0 0.937"></polygon>
    </defs>
    <g id="Homepage" stroke="none" stroke-width="1" fill="none" fill-rule="evenodd">
        <g id="0.0-Homepage---States" transform="translate(-134.000000, -606.000000)">
            <g id="icn_SugarFree" transform="translate(134.000000, 605.000000)">
                <path d="M24.5303,22.6888 L18.0043,25.7628 L18.0043,18.3208 L24.5303,15.2478 L24.5303,22.6888 Z M9.9713,15.2478 L16.4973,18.3208 L16.4973,25.7628 L9.9713,22.6898 L9.9713,15.2478 Z M17.2503,17.0108 L10.8513,13.9978 L17.2513,10.9848 L23.6503,13.9978 L17.2503,17.0108 Z M17.5713,9.4698 C17.5603,9.4648 17.5493,9.4628 17.5393,9.4588 C17.5153,9.4488 17.4903,9.4398 17.4653,9.4328 C17.4423,9.4258 17.4193,9.4198 17.3963,9.4148 C17.3723,9.4098 17.3473,9.4068 17.3233,9.4048 C17.2993,9.4018 17.2753,9.4008 17.2503,9.3998 C17.2263,9.3998 17.2033,9.4018 17.1783,9.4048 C17.1533,9.4068 17.1303,9.4098 17.1063,9.4148 C17.0833,9.4198 17.0603,9.4258 17.0373,9.4318 C17.0113,9.4398 16.9873,9.4488 16.9623,9.4588 C16.9513,9.4628 16.9403,9.4648 16.9303,9.4698 L8.8973,13.2528 C8.6013,13.3928 8.4413,13.7008 8.4723,14.0088 C8.4703,14.0258 8.4653,14.0428 8.4653,14.0608 L8.4653,23.1668 C8.4653,23.4588 8.6333,23.7238 8.8983,23.8488 L16.9303,27.6308 C16.9453,27.6378 16.9603,27.6388 16.9763,27.6458 C17.0053,27.6568 17.0353,27.6678 17.0663,27.6748 C17.0963,27.6828 17.1263,27.6878 17.1573,27.6918 C17.1883,27.6958 17.2193,27.6978 17.2513,27.6978 C17.2823,27.6978 17.3123,27.6958 17.3433,27.6918 C17.3743,27.6878 17.4043,27.6818 17.4353,27.6748 C17.4653,27.6668 17.4953,27.6568 17.5253,27.6458 C17.5403,27.6388 17.5563,27.6368 17.5713,27.6298 L25.6043,23.8478 C25.6843,23.8098 25.7553,23.7598 25.8153,23.6988 C25.9543,23.5598 26.0363,23.3698 26.0353,23.1658 L26.0363,14.0598 C26.0353,14.0428 26.0303,14.0258 26.0293,14.0078 C26.0603,13.6998 25.9003,13.3918 25.6033,13.2528 L17.5713,9.4698 Z" id="Fill-1" fill="#39424E"></path>
                <path d="M24.5303,22.6888 L18.0043,25.7628 L18.0043,18.3208 L24.5303,15.2478 L24.5303,22.6888 L24.5303,22.6888 Z M9.9713,15.2478 L16.4973,18.3208 L16.4973,25.7628 L9.9713,22.6898 L9.9713,15.2478 L9.9713,15.2478 Z M17.2503,17.0108 L10.8513,13.9978 L17.2513,10.9848 L23.6503,13.9978 L17.2503,17.0108 L17.2503,17.0108 Z M17.5713,9.4698 C17.5603,9.4648 17.5493,9.4628 17.5393,9.4588 C17.5153,9.4488 17.4903,9.4398 17.4653,9.4328 C17.4423,9.4258 17.4193,9.4198 17.3963,9.4148 C17.3723,9.4098 17.3473,9.4068 17.3233,9.4048 C17.2993,9.4018 17.2753,9.4008 17.2503,9.3998 C17.2263,9.3998 17.2033,9.4018 17.1783,9.4048 C17.1533,9.4068 17.1303,9.4098 17.1063,9.4148 C17.0833,9.4198 17.0603,9.4258 17.0373,9.4318 C17.0113,9.4398 16.9873,9.4488 16.9623,9.4588 C16.9513,9.4628 16.9403,9.4648 16.9303,9.4698 L8.8973,13.2528 C8.6013,13.3928 8.4413,13.7008 8.4723,14.0088 C8.4703,14.0258 8.4653,14.0428 8.4653,14.0608 L8.4653,23.1668 C8.4653,23.4588 8.6333,23.7238 8.8983,23.8488 L16.9303,27.6308 C16.9453,27.6378 16.9603,27.6388 16.9763,27.6458 C17.0053,27.6568 17.0353,27.6678 17.0663,27.6748 C17.0963,27.6828 17.1263,27.6878 17.1573,27.6918 C17.1883,27.6958 17.2193,27.6978 17.2513,27.6978 C17.2823,27.6978 17.3123,27.6958 17.3433,27.6918 C17.3743,27.6878 17.4043,27.6818 17.4353,27.6748 C17.4653,27.6668 17.4953,27.6568 17.5253,27.6458 C17.5403,27.6388 17.5563,27.6368 17.5713,27.6298 L25.6043,23.8478 C25.6843,23.8098 25.7553,23.7598 25.8153,23.6988 C25.9543,23.5598 26.0363,23.3698 26.0353,23.1658 L26.0363,14.0598 C26.0353,14.0428 26.0303,14.0258 26.0293,14.0078 C26.0603,13.6998 25.9003,13.3918 25.6033,13.2528 L17.5713,9.4698 L17.5713,9.4698 Z" id="Stroke-3" stroke="#FFFFFF" stroke-width="0.2"></path>
                <path d="M17.0311,3.2219 C12.7731,3.2219 8.7191,5.0529 5.9101,8.2469 C1.0041,13.8259 1.0071,22.2359 5.9171,27.8099 L6.0281,27.9219 L26.9151,7.0219 L26.7921,6.8999 C24.0981,4.5319 20.6281,3.2219 17.0311,3.2219 L17.0311,3.2219 Z M7.1951,29.0939 C9.8941,31.5109 13.3901,32.8479 17.0281,32.8479 L17.0321,32.8479 L17.0321,33.0979 L17.0571,32.8479 C25.2061,32.8479 31.8451,26.2169 31.8581,18.0689 C31.8641,14.4099 30.5231,10.8959 28.0831,8.1709 L27.9661,8.0549 L7.0681,28.9659 L7.1951,29.0939 Z M17.0321,34.8139 C7.7781,34.8139 0.2501,27.2849 0.2501,18.0319 C0.2611,8.7889 7.7901,1.2609 17.0321,1.2499 C26.2851,1.2499 33.8131,8.7789 33.8131,18.0319 C33.8131,27.2849 26.2851,34.8139 17.0321,34.8139 L17.0321,34.8139 Z" id="Fill-5" fill="#39424E"></path>
                <g id="Group-9" transform="translate(0.000000, 0.063300)">
                    <mask id="mask-2" fill="white">
                        <use xlink:href="#path-1"></use>
                    </mask>
                    <g id="Clip-8"></g>
                    <path d="M7.4247,28.8994 L27.9637,8.3474 C30.3127,10.9974 31.6137,14.4314 31.6077,18.0044 C31.5957,26.0164 25.0677,32.5354 17.0557,32.5354 L17.0287,32.5354 C13.4847,32.5354 10.0777,31.2444 7.4247,28.8994 L7.4247,28.8994 Z M6.0327,27.5004 C1.2767,22.0404 1.2917,13.8124 6.0977,8.3494 C8.8607,5.2094 12.8457,3.4084 17.0307,3.4084 C20.5317,3.4084 23.9097,4.6704 26.5567,6.9634 L6.0327,27.5004 Z M17.0317,0.9364 L17.0307,0.9364 C7.6517,0.9484 0.0117,8.5884 -0.0003,17.9674 C-0.0003,27.3594 7.6407,35.0004 17.0317,35.0004 C26.4227,35.0004 34.0637,27.3594 34.0637,17.9684 C34.0637,8.5774 26.4227,0.9364 17.0317,0.9364 L17.0317,0.9364 Z M17.0287,33.0354 L17.0317,33.0354 L17.0557,33.0354 C25.3577,33.0354 32.0947,26.3104 32.1077,18.0054 C32.1137,14.2914 30.7467,10.7074 28.2697,7.9414 L27.9647,7.6394 L6.7157,28.9014 L7.0177,29.2064 C9.7697,31.6714 13.3337,33.0354 17.0287,33.0354 L17.0287,33.0354 Z M6.0277,28.2134 L27.2697,6.9574 L26.9677,6.6594 C24.1077,4.1434 20.5617,2.9084 17.0307,2.9084 C12.8547,2.9084 8.6977,4.6364 5.7227,8.0194 C0.7197,13.7064 0.7217,22.2264 5.7287,27.9114 L6.0277,28.2134 L6.0277,28.2134 Z M17.0317,1.4364 C26.1617,1.4364 33.5637,8.8384 33.5637,17.9684 C33.5637,27.0984 26.1617,34.5004 17.0317,34.5004 C7.9017,34.5004 0.4997,27.0984 0.4997,17.9684 C0.5117,8.8424 7.9057,1.4484 17.0317,1.4364 L17.0317,1.4364 Z" id="Fill-7" fill="#FFFFFF" mask="url(#mask-2)"></path>
                </g>
            </g>
        </g>
    </g>
</svg>