<?xml version="1.0" encoding="UTF-8" standalone="no"?>
<svg width="31px" height="36px" viewBox="0 0 31 36" version="1.1" xmlns="http://www.w3.org/2000/svg" xmlns:xlink="http://www.w3.org/1999/xlink">
    <!-- Generator: sketchtool 41.2 (35397) - http://www.bohemiancoding.com/sketch -->
    <title>EE30EB33-A7C3-47CF-A8F0-FF17DB463AD8</title>
    <desc>Created with sketchtool.</desc>
    <defs>
        <path d="M21.4369796,5.23942201 C21.4342484,5.58686566 21.4035783,5.93361289 21.347,6.274 C21.253,6.832 21.109,7.381 20.898,7.914 C20.795,8.164 20.683,8.411 20.55,8.66 C20.874,8.915 21.124,9.247 21.263,9.643 C21.519,10.373 21.346,11.167 20.869,11.82 C20.149,10.855 19.181,10.219 18.36,9.912 C17.532,9.603 16.741,9.44 15.992,9.415 C16.366,8.924 16.914,8.515 17.585,8.28 C17.973,8.144 18.367,8.079 18.746,8.078 C18.988,7.851 19.211,7.542 19.406,7.208 C19.627,6.821 19.817,6.402 19.94,5.966 C20.197,5.098 20.244,4.163 19.991,3.295 C19.853,2.826 19.688,2.381 19.463,1.983 C19.243,1.589 18.948,1.238 18.611,1.111 C18.444,1.049 18.275,1.032 18.106,1.106 C18.07,1.125 17.995,1.178 17.959,1.233 C17.92,1.292 17.896,1.363 17.892,1.436 C17.885,1.511 17.9,1.574 17.935,1.64 C17.958,1.687 18.016,1.745 18.072,1.778 C18.193,1.849 18.327,1.836 18.408,1.763 C18.607,1.584 18.914,1.601 19.094,1.8 C19.273,2 19.255,2.307 19.056,2.486 C18.995,2.54 18.926,2.576 18.851,2.595 L18.712,2.63 C18.311,2.73 17.884,2.613 17.608,2.365 C17.468,2.237 17.357,2.093 17.284,1.904 C17.218,1.737 17.198,1.54 17.22,1.362 C17.267,1 17.478,0.666 17.839,0.49 C18.0188971,0.401985831 18.2315351,0.353260727 18.442533,0.35015801 L18.4856479,0.35015801 C18.6003003,0.351834901 18.7138056,0.366893722 18.822,0.397 C19.146,0.478 19.42,0.65 19.646,0.844 C19.873,1.039 20.061,1.26 20.226,1.488 C20.554,1.945 20.795,2.441 21,2.929 C21.2923123,3.62722769 21.4310327,4.38283162 21.4369796,5.13775563 L21.4369796,5.23942226 L21.4369796,5.23942201 Z M1.97095892,31.9621084 C1.35697611,31.9576142 0.737795676,31.9024683 0.115,31.791 C7.069,28.385 9.014,23.043 10.29,16.92 C11.07,13.172 12.769,10.327 15.803,10.327 C16.48,10.327 17.222,10.469 18.037,10.773 C19.897,11.469 22.72,14.177 19.631,19.202 C16.7860031,23.8294933 9.88726332,31.9054655 2.13480878,31.9621084 L1.97095446,31.9621084 L1.97095892,31.9621084 Z" id="path-1"></path>
        <path d="M24.3602041,5.89434976 C24.3571005,6.28522387 24.322248,6.6753145 24.2579545,7.05825 C24.1511364,7.686 23.9875,8.303625 23.7477273,8.90325 C23.6306818,9.1845 23.5034091,9.462375 23.3522727,9.7425 C23.7204545,10.029375 24.0045455,10.402875 24.1625,10.848375 C24.4534091,11.669625 24.2568182,12.562875 23.7147727,13.2975 C22.8965909,12.211875 21.7965909,11.496375 20.8636364,11.151 C19.9227273,10.803375 19.0238636,10.62 18.1727273,10.591875 C18.5977273,10.0395 19.2204545,9.579375 19.9829545,9.315 C20.4238636,9.162 20.8715909,9.088875 21.3022727,9.08775 C21.5772727,8.832375 21.8306818,8.48475 22.0522727,8.109 C22.3034091,7.673625 22.5193182,7.20225 22.6590909,6.71175 C22.9511364,5.73525 23.0045455,4.683375 22.7170455,3.706875 C22.5602273,3.17925 22.3727273,2.678625 22.1170455,2.230875 C21.8670455,1.787625 21.5318182,1.39275 21.1488636,1.249875 C20.9590909,1.180125 20.7670455,1.161 20.575,1.24425 C20.5340909,1.265625 20.4488636,1.32525 20.4079545,1.387125 C20.3636364,1.4535 20.3363636,1.533375 20.3318182,1.6155 C20.3238636,1.699875 20.3409091,1.77075 20.3806818,1.845 C20.4068182,1.897875 20.4727273,1.963125 20.5363636,2.00025 C20.6738636,2.080125 20.8261364,2.0655 20.9181818,1.983375 C21.1443182,1.782 21.4931818,1.801125 21.6977273,2.025 C21.9011364,2.25 21.8806818,2.595375 21.6545455,2.79675 C21.5852273,2.8575 21.5068182,2.898 21.4215909,2.919375 L21.2636364,2.95875 C20.8079545,3.07125 20.3227273,2.939625 20.0090909,2.660625 C19.85,2.516625 19.7238636,2.354625 19.6409091,2.142 C19.5659091,1.954125 19.5431818,1.7325 19.5681818,1.53225 C19.6215909,1.125 19.8613636,0.74925 20.2715909,0.55125 C20.4760194,0.45223406 20.7176535,0.397418318 20.9574239,0.393927762 L21.0064181,0.393927762 C21.1367048,0.395814263 21.2656881,0.412755437 21.3886364,0.446625 C21.7568182,0.53775 22.0681818,0.73125 22.325,0.9495 C22.5829545,1.168875 22.7965909,1.4175 22.9840909,1.674 C23.3568182,2.188125 23.6306818,2.746125 23.8636364,3.295125 C24.1958094,4.08063115 24.3534463,4.93068557 24.3602041,5.77997508 L24.3602041,5.89435004 L24.3602041,5.89434976 Z M2.23972605,35.9573719 C1.54201831,35.952316 0.838404177,35.8902769 0.130681818,35.764875 C8.03295455,31.933125 10.2431818,25.923375 11.6931818,19.035 C12.5795455,14.8185 14.5102273,11.617875 17.9579545,11.617875 C18.7272727,11.617875 19.5704545,11.777625 20.4965909,12.119625 C22.6102273,12.902625 25.8181818,15.949125 22.3079545,21.60225 C19.0750035,26.80818 11.2355265,35.8936487 2.42591907,35.9573719 L2.23972098,35.9573719 L2.23972605,35.9573719 Z" id="path-3"></path>
    </defs>
    <g id="Homepage" stroke="none" stroke-width="1" fill="none" fill-rule="evenodd">
        <g id="0.0-Homepage---States" transform="translate(-312.000000, -603.000000)">
            <g id="icn_VerySpicy" transform="translate(312.000000, 603.000000)">
                <g id="ic_Spicy-Copy" transform="translate(0.000000, 1.000000)">
                    <mask id="mask-2" fill="white">
                        <use xlink:href="#path-1"></use>
                    </mask>
                    <g id="Clip-2"></g>
                    <path d="M20.9998,2.9287 C20.7958,2.4407 20.5538,1.9447 20.2258,1.4877 C20.0608,1.2597 19.8728,1.0387 19.6458,0.8437 C19.4198,0.6497 19.1458,0.4777 18.8218,0.3967 C18.5048,0.3097 18.1308,0.3467 17.8388,0.4907 C17.4778,0.6657 17.2678,0.9997 17.2198,1.3617 C17.1978,1.5397 17.2178,1.7367 17.2838,1.9047 C17.3568,2.0937 17.4678,2.2367 17.6078,2.3647 C17.8838,2.6127 18.3118,2.7297 18.7118,2.6297 L18.8518,2.5947 C18.9258,2.5757 18.9958,2.5397 19.0558,2.4857 C19.2558,2.3067 19.2728,1.9997 19.0938,1.7997 C18.9148,1.6007 18.6078,1.5837 18.4078,1.7627 C18.3268,1.8357 18.1938,1.8487 18.0718,1.7777 C18.0158,1.7447 17.9578,1.6867 17.9348,1.6397 C17.8998,1.5737 17.8848,1.5107 17.8918,1.4357 C17.8958,1.3627 17.9198,1.2917 17.9598,1.2327 C17.9948,1.1777 18.0698,1.1247 18.1058,1.1057 C18.2758,1.0327 18.4438,1.0497 18.6108,1.1107 C18.9478,1.2387 19.2428,1.5897 19.4638,1.9827 C19.6888,2.3817 19.8528,2.8257 19.9908,3.2947 C20.2438,4.1637 20.1968,5.0977 19.9408,5.9657 C19.8168,6.4017 19.6268,6.8207 19.4058,7.2077 C19.2118,7.5417 18.9878,7.8507 18.7458,8.0777 C18.3668,8.0797 17.9728,8.1437 17.5848,8.2797 C16.9138,8.5147 16.3658,8.9237 15.9918,9.4147 C16.7408,9.4397 17.5318,9.6027 18.3598,9.9117 C19.1808,10.2197 20.1488,10.8547 20.8688,11.8197 C21.3458,11.1667 21.5188,10.3737 21.2628,9.6427 C21.1238,9.2467 20.8738,8.9147 20.5498,8.6597 C20.6828,8.4117 20.7958,8.1637 20.8978,7.9137 C21.1098,7.3807 21.2528,6.8317 21.3468,6.2737 C21.5318,5.1617 21.4398,3.9797 20.9998,2.9287 L20.9998,2.9287 Z M18.0368,10.7727 C13.5728,9.1027 11.2448,12.3357 10.2898,16.9197 C9.0148,23.0427 7.0698,28.3847 0.1148,31.7907 C8.6688,33.3217 16.5408,24.2277 19.6308,19.2027 C22.7208,14.1767 19.8968,11.4687 18.0368,10.7727 L18.0368,10.7727 Z" id="Stroke-1" stroke="#39424E" stroke-width="2" fill="#FFFFFF" mask="url(#mask-2)"></path>
                </g>
                <g id="ic_Spicy-Copy-2" transform="translate(6.000000, 0.000000)">
                    <mask id="mask-4" fill="white">
                        <use xlink:href="#path-3"></use>
                    </mask>
                    <g id="Clip-2"></g>
                    <path d="M23.8634091,3.2947875 C23.6315909,2.7457875 23.3565909,2.1877875 22.9838636,1.6736625 C22.7963636,1.4171625 22.5827273,1.1685375 22.3247727,0.9491625 C22.0679545,0.7309125 21.7565909,0.5374125 21.3884091,0.4462875 C21.0281818,0.3484125 20.6031818,0.3900375 20.2713636,0.5520375 C19.8611364,0.7489125 19.6225,1.1246625 19.5679545,1.5319125 C19.5429545,1.7321625 19.5656818,1.9537875 19.6406818,2.1427875 C19.7236364,2.3554125 19.8497727,2.5162875 20.0088636,2.6602875 C20.3225,2.9392875 20.8088636,3.0709125 21.2634091,2.9584125 L21.4225,2.9190375 C21.5065909,2.8976625 21.5861364,2.8571625 21.6543182,2.7964125 C21.8815909,2.5950375 21.9009091,2.2496625 21.6975,2.0246625 C21.4940909,1.8007875 21.1452273,1.7816625 20.9179545,1.9830375 C20.8259091,2.0651625 20.6747727,2.0797875 20.5361364,1.9999125 C20.4725,1.9627875 20.4065909,1.8975375 20.3804545,1.8446625 C20.3406818,1.7704125 20.3236364,1.6995375 20.3315909,1.6151625 C20.3361364,1.5330375 20.3634091,1.4531625 20.4088636,1.3867875 C20.4486364,1.3249125 20.5338636,1.2652875 20.5747727,1.2439125 C20.7679545,1.1617875 20.9588636,1.1809125 21.1486364,1.2495375 C21.5315909,1.3935375 21.8668182,1.7884125 22.1179545,2.2305375 C22.3736364,2.6794125 22.56,3.1789125 22.7168182,3.7065375 C23.0043182,4.6841625 22.9509091,5.7349125 22.66,6.7114125 C22.5190909,7.2019125 22.3031818,7.6732875 22.0520455,8.1086625 C21.8315909,8.4844125 21.5770455,8.8320375 21.3020455,9.0874125 C20.8713636,9.0896625 20.4236364,9.1616625 19.9827273,9.3146625 C19.2202273,9.5790375 18.5975,10.0391625 18.1725,10.5915375 C19.0236364,10.6196625 19.9225,10.8030375 20.8634091,11.1506625 C21.7963636,11.4971625 22.8963636,12.2115375 23.7145455,13.2971625 C24.2565909,12.5625375 24.4531818,11.6704125 24.1622727,10.8480375 C24.0043182,10.4025375 23.7202273,10.0290375 23.3520455,9.7421625 C23.5031818,9.4631625 23.6315909,9.1841625 23.7475,8.9029125 C23.9884091,8.3032875 24.1509091,7.6856625 24.2577273,7.0579125 C24.4679545,5.8069125 24.3634091,4.4771625 23.8634091,3.2947875 L23.8634091,3.2947875 Z M11.6929545,19.0346625 C10.2440909,25.9230375 8.03386364,31.9327875 0.130454545,35.7645375 C9.85090909,37.4869125 18.7963636,27.2561625 22.3077273,21.6030375 C25.8190909,15.9487875 22.61,12.9022875 20.4963636,12.1192875 C15.4236364,10.2405375 12.7781818,13.8776625 11.6929545,19.0346625 Z" id="Stroke-1" stroke="#39424E" stroke-width="2" fill="#FFFFFF" mask="url(#mask-4)"></path>
                </g>
            </g>
        </g>
    </g>
</svg>