<?xml version="1.0" encoding="UTF-8" standalone="no"?>
<svg width="34px" height="34px" viewBox="0 0 34 34" version="1.1" xmlns="http://www.w3.org/2000/svg" xmlns:xlink="http://www.w3.org/1999/xlink">
    <!-- Generator: sketchtool 41.2 (35397) - http://www.bohemiancoding.com/sketch -->
    <title>47F50225-44B0-4C61-84A7-17965E8E3211</title>
    <desc>Created with sketchtool.</desc>
    <defs></defs>
    <g id="Homepage" stroke="none" stroke-width="1" fill="none" fill-rule="evenodd">
        <g id="0.0-Homepage---States" transform="translate(-134.000000, -713.000000)">
            <g id="icn_GlutenFree" transform="translate(134.000000, 712.000000)">
                <path d="M15.8297,20.2411 C15.8337,19.9951 15.8187,19.7491 15.7857,19.5051 L15.1077,20.1831 C15.3467,20.2191 15.5877,20.2391 15.8297,20.2411" id="Fill-1" fill="#39424E"></path>
                <path d="M15.8297,20.2411 C15.8337,19.9951 15.8187,19.7491 15.7857,19.5051 L15.1077,20.1831 C15.3467,20.2191 15.5877,20.2391 15.8297,20.2411 L15.8297,20.2411 Z" id="Stroke-3" stroke="#FFFFFF" stroke-width="0.5"></path>
                <path d="M11.3805,20.787 C11.3775,20.954 11.3835,21.122 11.3975,21.289 L11.8685,20.818 C11.7065,20.799 11.5435,20.789 11.3805,20.787" id="Fill-5" fill="#39424E"></path>
                <path d="M11.3805,20.787 C11.3775,20.954 11.3835,21.122 11.3975,21.289 L11.8685,20.818 C11.7065,20.799 11.5435,20.789 11.3805,20.787 L11.3805,20.787 Z" id="Stroke-7" stroke="#FFFFFF" stroke-width="0.5"></path>
                <path d="M11.3805,10.7494 C11.5365,10.7404 11.6925,10.7404 11.8475,10.7494 C14.1795,10.8784 15.9655,12.8734 15.8365,15.2054 C14.6385,15.2534 13.4725,14.8084 12.6115,13.9744 C11.7795,13.1114 11.3355,11.9474 11.3805,10.7494 M16.5315,12.0614 C15.6535,11.2464 15.1455,10.1094 15.1245,8.9114 C15.1455,7.7134 15.6535,6.5764 16.5315,5.7614 C17.4095,6.5764 17.9175,7.7134 17.9385,8.9114 C17.9175,10.1094 17.4095,11.2464 16.5315,12.0614 M10.2075,22.4824 L11.3975,21.2894 C11.3795,21.1324 11.3695,20.9754 11.3665,20.8174 C11.5345,20.8094 11.7015,20.8094 11.8685,20.8174 L13.2255,19.4884 C13.0015,19.3494 12.7925,19.1874 12.6015,19.0064 C11.7675,18.1454 11.3225,16.9794 11.3705,15.7814 C12.5675,15.7364 13.7325,16.1814 14.5955,17.0124 C14.7765,17.1964 14.9405,17.3974 15.0835,17.6134 L17.4915,15.2024 L17.2195,15.2024 C17.1745,14.0044 17.6195,12.8404 18.4505,11.9774 C19.3095,11.1384 20.4765,10.6924 21.6755,10.7464 L21.6755,11.0134 L22.9305,9.7594 C22.8235,9.5714 22.6335,9.4454 22.4185,9.4204 C21.3415,9.2804 20.2475,9.4254 19.2445,9.8404 C19.3005,9.5364 19.3295,9.2274 19.3325,8.9184 C19.3015,7.0944 18.4245,5.3884 16.9585,4.3034 C16.7105,4.1024 16.3565,4.1024 16.1075,4.3034 C14.6425,5.3894 13.7655,7.0944 13.7335,8.9184 C13.7365,9.2274 13.7665,9.5364 13.8225,9.8404 C12.8175,9.4244 11.7225,9.2794 10.6445,9.4204 C10.3305,9.4544 10.0825,9.7004 10.0445,10.0134 C9.8235,11.5654 10.2215,13.1414 11.1535,14.4014 C10.9875,14.4084 10.8175,14.4184 10.6485,14.4394 C10.3295,14.4724 10.0775,14.7244 10.0445,15.0424 C9.8235,16.5934 10.2225,18.1684 11.1535,19.4274 C10.9875,19.4344 10.8175,19.4444 10.6485,19.4644 C10.3295,19.4984 10.0775,19.7494 10.0445,20.0684 C9.9425,20.8764 9.9985,21.6954 10.2075,22.4824" id="Fill-9" fill="#39424E"></path>
                <path d="M11.3805,10.7494 C11.5365,10.7404 11.6925,10.7404 11.8475,10.7494 C14.1795,10.8784 15.9655,12.8734 15.8365,15.2054 C14.6385,15.2534 13.4725,14.8084 12.6115,13.9744 C11.7795,13.1114 11.3355,11.9474 11.3805,10.7494 L11.3805,10.7494 Z M16.5315,12.0614 C15.6535,11.2464 15.1455,10.1094 15.1245,8.9114 C15.1455,7.7134 15.6535,6.5764 16.5315,5.7614 C17.4095,6.5764 17.9175,7.7134 17.9385,8.9114 C17.9175,10.1094 17.4095,11.2464 16.5315,12.0614 L16.5315,12.0614 Z M10.2075,22.4824 L11.3975,21.2894 C11.3795,21.1324 11.3695,20.9754 11.3665,20.8174 C11.5345,20.8094 11.7015,20.8094 11.8685,20.8174 L13.2255,19.4884 C13.0015,19.3494 12.7925,19.1874 12.6015,19.0064 C11.7675,18.1454 11.3225,16.9794 11.3705,15.7814 C12.5675,15.7364 13.7325,16.1814 14.5955,17.0124 C14.7765,17.1964 14.9405,17.3974 15.0835,17.6134 L17.4915,15.2024 L17.2195,15.2024 C17.1745,14.0044 17.6195,12.8404 18.4505,11.9774 C19.3095,11.1384 20.4765,10.6924 21.6755,10.7464 L21.6755,11.0134 L22.9305,9.7594 C22.8235,9.5714 22.6335,9.4454 22.4185,9.4204 C21.3415,9.2804 20.2475,9.4254 19.2445,9.8404 C19.3005,9.5364 19.3295,9.2274 19.3325,8.9184 C19.3015,7.0944 18.4245,5.3884 16.9585,4.3034 C16.7105,4.1024 16.3565,4.1024 16.1075,4.3034 C14.6425,5.3894 13.7655,7.0944 13.7335,8.9184 C13.7365,9.2274 13.7665,9.5364 13.8225,9.8404 C12.8175,9.4244 11.7225,9.2794 10.6445,9.4204 C10.3305,9.4544 10.0825,9.7004 10.0445,10.0134 C9.8235,11.5654 10.2215,13.1414 11.1535,14.4014 C10.9875,14.4084 10.8175,14.4184 10.6485,14.4394 C10.3295,14.4724 10.0775,14.7244 10.0445,15.0424 C9.8235,16.5934 10.2225,18.1684 11.1535,19.4274 C10.9875,19.4344 10.8175,19.4444 10.6485,19.4644 C10.3295,19.4984 10.0775,19.7494 10.0445,20.0684 C9.9425,20.8764 9.9985,21.6954 10.2075,22.4824 L10.2075,22.4824 Z" id="Stroke-11" stroke="#FFFFFF" stroke-width="0.2"></path>
                <path d="M18.4578,22.0316 C19.3188,21.1966 20.4848,20.7516 21.6828,20.8006 C21.7298,21.9986 21.2858,23.1636 20.4518,24.0256 C19.5858,24.8526 18.4238,25.2966 17.2268,25.2566 C17.1828,24.0586 17.6288,22.8936 18.4608,22.0316 L18.4578,22.0316 Z M18.4578,17.0056 C19.3218,16.1736 20.4878,15.7286 21.6858,15.7746 C21.7338,16.9726 21.2888,18.1386 20.4548,18.9996 C19.5898,19.8276 18.4268,20.2716 17.2298,20.2306 C17.1848,19.0336 17.6298,17.8686 18.4608,17.0056 L18.4578,17.0056 Z M21.9138,14.4016 C22.3618,13.8076 22.6878,13.1316 22.8728,12.4106 L15.7888,19.5056 C15.8218,19.7486 15.8368,19.9946 15.8328,20.2416 C15.5888,20.2416 15.3458,20.2246 15.1038,20.1906 L13.8458,21.4516 C14.1218,21.6176 14.3768,21.8156 14.6058,22.0416 C15.4368,22.9046 15.8818,24.0696 15.8368,25.2666 C14.6408,25.3086 13.4788,24.8646 12.6148,24.0356 C12.3898,23.8076 12.1928,23.5536 12.0278,23.2796 L11.0348,24.2796 C11.2198,24.5436 11.4268,24.7916 11.6548,25.0196 C12.7608,26.0866 14.2458,26.6706 15.7818,26.6436 L15.9378,26.6436 L15.9378,28.4776 C15.9378,28.8526 16.2418,29.1566 16.6168,29.1566 C16.9908,29.1566 17.2948,28.8526 17.2948,28.4776 L17.2948,26.6606 L17.3658,26.6606 C18.8878,26.6836 20.3548,26.0916 21.4348,25.0196 C22.7068,23.7066 23.2928,21.8756 23.0218,20.0686 C22.9888,19.7496 22.7368,19.4976 22.4188,19.4646 C22.2528,19.4276 22.0828,19.4276 21.9138,19.4276 C22.8438,18.1676 23.2418,16.5926 23.0218,15.0426 C22.9888,14.7236 22.7368,14.4726 22.4188,14.4386 C22.2488,14.4186 22.0798,14.4116 21.9138,14.4016 L21.9138,14.4016 Z" id="Fill-13" fill="#39424E"></path>
                <path d="M18.4578,22.0316 C19.3188,21.1966 20.4848,20.7516 21.6828,20.8006 C21.7298,21.9986 21.2858,23.1636 20.4518,24.0256 C19.5858,24.8526 18.4238,25.2966 17.2268,25.2566 C17.1828,24.0586 17.6288,22.8936 18.4608,22.0316 L18.4578,22.0316 L18.4578,22.0316 Z M18.4578,17.0056 C19.3218,16.1736 20.4878,15.7286 21.6858,15.7746 C21.7338,16.9726 21.2888,18.1386 20.4548,18.9996 C19.5898,19.8276 18.4268,20.2716 17.2298,20.2306 C17.1848,19.0336 17.6298,17.8686 18.4608,17.0056 L18.4578,17.0056 L18.4578,17.0056 Z M21.9138,14.4016 C22.3618,13.8076 22.6878,13.1316 22.8728,12.4106 L15.7888,19.5056 C15.8218,19.7486 15.8368,19.9946 15.8328,20.2416 C15.5888,20.2416 15.3458,20.2246 15.1038,20.1906 L13.8458,21.4516 C14.1218,21.6176 14.3768,21.8156 14.6058,22.0416 C15.4368,22.9046 15.8818,24.0696 15.8368,25.2666 C14.6408,25.3086 13.4788,24.8646 12.6148,24.0356 C12.3898,23.8076 12.1928,23.5536 12.0278,23.2796 L11.0348,24.2796 C11.2198,24.5436 11.4268,24.7916 11.6548,25.0196 C12.7608,26.0866 14.2458,26.6706 15.7818,26.6436 L15.9378,26.6436 L15.9378,28.4776 C15.9378,28.8526 16.2418,29.1566 16.6168,29.1566 C16.9908,29.1566 17.2948,28.8526 17.2948,28.4776 L17.2948,26.6606 L17.3658,26.6606 C18.8878,26.6836 20.3548,26.0916 21.4348,25.0196 C22.7068,23.7066 23.2928,21.8756 23.0218,20.0686 C22.9888,19.7496 22.7368,19.4976 22.4188,19.4646 C22.2528,19.4276 22.0828,19.4276 21.9138,19.4276 C22.8438,18.1676 23.2418,16.5926 23.0218,15.0426 C22.9888,14.7236 22.7368,14.4726 22.4188,14.4386 C22.2488,14.4186 22.0798,14.4116 21.9138,14.4016 L21.9138,14.4016 Z" id="Stroke-15" stroke="#FFFFFF" stroke-width="0.2"></path>
                <g id="Group-19" transform="translate(0.000000, 0.063200)" fill="#39424E">
                    <path d="M5.2227,7.5189 C10.7137,1.2769 20.2257,0.6679 26.4677,6.1589 L26.7697,6.4579 L5.5277,27.7129 L5.2287,27.4109 C0.2217,21.7269 0.2197,13.2069 5.2227,7.5189 M6.5177,28.7069 L6.2157,28.4009 L27.4647,7.1389 L27.7697,7.4409 C30.2467,10.2069 31.6137,13.7919 31.6077,17.5049 C31.5947,25.8189 24.8447,32.5479 16.5317,32.5349 C12.8357,32.5359 9.2697,31.1729 6.5177,28.7069 M-0.0003,17.4679 L-0.0003,17.4679 C-0.0003,26.5989 7.4017,33.9999 16.5317,33.9999 C25.6617,33.9999 33.0627,26.5989 33.0627,17.4679 C33.0627,8.3379 25.6617,0.9369 16.5317,0.9369 C7.4057,0.9479 0.0107,8.3429 -0.0003,17.4679" id="Fill-17"></path>
                </g>
            </g>
        </g>
    </g>
</svg>