<?xml version="1.0" encoding="UTF-8" standalone="no"?>
<svg width="31px" height="34px" viewBox="0 0 31 34" version="1.1" xmlns="http://www.w3.org/2000/svg" xmlns:xlink="http://www.w3.org/1999/xlink">
    <!-- Generator: sketchtool 41.2 (35397) - http://www.bohemiancoding.com/sketch -->
    <title>78C0DE38-E6E5-451E-AEAD-BF571EE7CE8F</title>
    <desc>Created with sketchtool.</desc>
    <defs></defs>
    <g id="Homepage" stroke="none" stroke-width="1" fill="none" fill-rule="evenodd">
        <g id="0.0-Homepage---States" transform="translate(-213.000000, -713.000000)">
            <g id="icn_ContainsSoy" transform="translate(213.000000, 713.000000)">
                <path d="M26.8098,15.1532 C26.6548,15.3082 26.4768,15.4632 26.2298,15.6582 C25.2338,16.5052 24.5138,17.6122 24.1468,18.8602 C24.1058,19.0022 24.1078,19.1532 24.1528,19.2932 C24.8138,21.3302 24.1258,23.7612 22.4018,25.4852 C21.1328,26.7542 19.4588,27.4822 17.8088,27.4822 C17.2518,27.4822 16.7148,27.3992 16.2118,27.2362 C16.0708,27.1902 15.9198,27.1882 15.7788,27.2302 C14.5288,27.5972 13.4218,28.3172 12.5598,29.3332 C12.3798,29.5602 12.2238,29.7382 12.0708,29.8922 C10.9648,30.9982 9.5078,31.6322 8.0728,31.6322 C7.3878,31.6322 6.7478,31.4902 6.1728,31.2112 C6.0648,31.1582 5.8208,31.0332 5.4928,30.8662 C4.6658,30.4432 3.4148,29.8042 2.4128,29.3292 C2.7478,28.7922 3.0808,28.0942 3.4608,27.2962 C4.1158,25.9252 4.8578,24.3702 5.7018,23.5252 C6.8038,22.4232 8.2578,21.7912 9.6918,21.7912 C9.9628,21.7912 10.2328,21.8142 10.4928,21.8602 C10.6168,21.8822 10.7438,21.8712 10.8628,21.8292 C12.0288,21.4172 13.0548,20.6922 13.8298,19.7322 C13.8548,19.7012 13.8778,19.6692 13.8968,19.6342 C14.2088,19.0872 14.5958,18.5812 15.0478,18.1302 C15.4988,17.6792 16.0048,17.2922 16.5518,16.9802 C16.5858,16.9602 16.6188,16.9382 16.6498,16.9132 C17.6098,16.1372 18.3348,15.1112 18.7458,13.9462 C18.7878,13.8282 18.7988,13.7002 18.7768,13.5762 C18.6598,12.9032 18.6938,12.2102 18.8608,11.5352 C19.0308,11.1702 19.1718,10.7862 19.2838,10.3902 C19.5708,9.8142 19.9588,9.2692 20.4428,8.7862 C21.1148,8.1142 22.0268,7.5312 22.9928,6.9122 C23.9078,6.3262 24.9158,5.6812 25.8598,4.8662 C26.3618,6.1722 27.0948,7.5872 28.0818,9.1592 C29.1208,10.8122 28.5738,13.3892 26.8098,15.1532 M26.8868,3.3412 C26.8128,3.0902 26.6108,2.8982 26.3568,2.8372 C26.1018,2.7752 25.8348,2.8542 25.6538,3.0432 C24.6118,4.1342 23.3858,4.9182 22.2018,5.6762 C21.2138,6.3092 20.2838,6.9112 19.5188,7.6462 C19.3468,6.2302 18.6838,4.8712 17.3298,3.8712 C15.9778,2.8722 14.7398,1.6402 13.8418,0.4032 C13.6888,0.1912 13.4348,0.0772 13.1748,0.1032 C12.9138,0.1302 12.6878,0.2932 12.5808,0.5312 C12.0328,1.7432 11.2408,2.7572 10.4758,3.7372 C9.8008,4.6002 9.1638,5.4152 8.7348,6.3112 C7.8488,8.1602 7.8378,10.2352 8.6938,11.9072 C8.6628,12.6672 8.4428,13.4062 8.0518,14.0592 C7.6218,14.5622 7.2578,15.1222 6.9688,15.7252 C6.6798,16.3282 6.4708,16.9632 6.3468,17.6132 C6.0838,18.3262 5.6458,18.9612 5.0718,19.4612 C3.2308,19.8392 1.6198,21.1472 0.7338,22.9952 C0.4698,23.5442 0.2668,24.2522 0.1108,25.1582 C0.0418,25.5582 0.3108,25.9362 0.7098,26.0052 C0.7518,26.0132 0.7938,26.0162 0.8348,26.0162 C1.1858,26.0162 1.4948,25.7642 1.5568,25.4062 C1.6888,24.6352 1.8528,24.0542 2.0558,23.6302 C2.7688,22.1442 4.0618,21.1122 5.5158,20.8702 C5.6408,20.8492 5.7568,20.7972 5.8548,20.7172 C6.7228,20.0202 7.3768,19.0982 7.7488,18.0512 C7.7618,18.0142 7.7718,17.9762 7.7798,17.9372 C7.8778,17.3952 8.0508,16.8642 8.2928,16.3592 C8.5338,15.8552 8.8398,15.3892 9.2018,14.9722 C9.2278,14.9422 9.2508,14.9102 9.2718,14.8762 C9.8548,13.9312 10.1638,12.8442 10.1648,11.7312 C10.1658,11.6052 10.1328,11.4812 10.0718,11.3712 C9.3508,10.0862 9.3458,8.4312 10.0578,6.9452 C10.4188,6.1932 11.0078,5.4392 11.6318,4.6402 C12.2048,3.9062 12.8348,3.1002 13.3748,2.1802 C14.2528,3.2192 15.3038,4.1982 16.4598,5.0522 C18.1568,6.3052 18.3428,8.2302 17.9158,9.8532 C17.7238,10.2572 17.5718,10.6752 17.4608,11.0992 C17.4548,11.1202 17.4488,11.1402 17.4438,11.1612 C17.2408,11.9722 17.1868,12.8072 17.3008,13.6272 C16.9778,14.4492 16.4528,15.1752 15.7718,15.7382 C15.1318,16.1092 14.5398,16.5652 14.0118,17.0932 C13.4828,17.6212 13.0268,18.2142 12.6548,18.8542 C12.0928,19.5352 11.3668,20.0612 10.5438,20.3842 C10.2648,20.3452 9.9798,20.3252 9.6938,20.3252 C7.8728,20.3252 6.0418,21.1142 4.6668,22.4892 C3.6438,23.5122 2.8438,25.1872 2.1388,26.6652 C1.6708,27.6462 1.1408,28.7572 0.7938,29.0402 C0.5958,29.2022 0.4968,29.4572 0.5328,29.7102 C0.5688,29.9642 0.7338,30.1812 0.9698,30.2822 C1.9458,30.7012 3.8198,31.6582 4.8268,32.1732 C5.1658,32.3462 5.4198,32.4762 5.5318,32.5302 C6.3088,32.9072 7.1638,33.0992 8.0728,33.0992 C9.8938,33.0992 11.7288,32.3082 13.1088,30.9282 C13.3028,30.7332 13.4938,30.5152 13.6928,30.2632 C14.3078,29.5402 15.0978,29.0022 15.9898,28.7012 C16.5708,28.8652 17.1818,28.9482 17.8088,28.9482 C19.8448,28.9482 21.8958,28.0642 23.4388,26.5222 C25.4858,24.4752 26.3258,21.5772 25.6178,19.0722 C25.9188,18.1812 26.4548,17.3922 27.1578,16.7942 C27.4298,16.5792 27.6488,16.3882 27.8468,16.1902 C30.1178,13.9182 30.7398,10.6332 29.3228,8.3792 C28.1228,6.4662 27.3258,4.8182 26.8868,3.3412" id="Fill-1" fill="#39424E"></path>
                <path d="M26.8098,15.1532 C26.6548,15.3082 26.4768,15.4632 26.2298,15.6582 C25.2338,16.5052 24.5138,17.6122 24.1468,18.8602 C24.1058,19.0022 24.1078,19.1532 24.1528,19.2932 C24.8138,21.3302 24.1258,23.7612 22.4018,25.4852 C21.1328,26.7542 19.4588,27.4822 17.8088,27.4822 C17.2518,27.4822 16.7148,27.3992 16.2118,27.2362 C16.0708,27.1902 15.9198,27.1882 15.7788,27.2302 C14.5288,27.5972 13.4218,28.3172 12.5598,29.3332 C12.3798,29.5602 12.2238,29.7382 12.0708,29.8922 C10.9648,30.9982 9.5078,31.6322 8.0728,31.6322 C7.3878,31.6322 6.7478,31.4902 6.1728,31.2112 C6.0648,31.1582 5.8208,31.0332 5.4928,30.8662 C4.6658,30.4432 3.4148,29.8042 2.4128,29.3292 C2.7478,28.7922 3.0808,28.0942 3.4608,27.2962 C4.1158,25.9252 4.8578,24.3702 5.7018,23.5252 C6.8038,22.4232 8.2578,21.7912 9.6918,21.7912 C9.9628,21.7912 10.2328,21.8142 10.4928,21.8602 C10.6168,21.8822 10.7438,21.8712 10.8628,21.8292 C12.0288,21.4172 13.0548,20.6922 13.8298,19.7322 C13.8548,19.7012 13.8778,19.6692 13.8968,19.6342 C14.2088,19.0872 14.5958,18.5812 15.0478,18.1302 C15.4988,17.6792 16.0048,17.2922 16.5518,16.9802 C16.5858,16.9602 16.6188,16.9382 16.6498,16.9132 C17.6098,16.1372 18.3348,15.1112 18.7458,13.9462 C18.7878,13.8282 18.7988,13.7002 18.7768,13.5762 C18.6598,12.9032 18.6938,12.2102 18.8608,11.5352 C19.0308,11.1702 19.1718,10.7862 19.2838,10.3902 C19.5708,9.8142 19.9588,9.2692 20.4428,8.7862 C21.1148,8.1142 22.0268,7.5312 22.9928,6.9122 C23.9078,6.3262 24.9158,5.6812 25.8598,4.8662 C26.3618,6.1722 27.0948,7.5872 28.0818,9.1592 C29.1208,10.8122 28.5738,13.3892 26.8098,15.1532 L26.8098,15.1532 Z M26.8868,3.3412 C26.8128,3.0902 26.6108,2.8982 26.3568,2.8372 C26.1018,2.7752 25.8348,2.8542 25.6538,3.0432 C24.6118,4.1342 23.3858,4.9182 22.2018,5.6762 C21.2138,6.3092 20.2838,6.9112 19.5188,7.6462 C19.3468,6.2302 18.6838,4.8712 17.3298,3.8712 C15.9778,2.8722 14.7398,1.6402 13.8418,0.4032 C13.6888,0.1912 13.4348,0.0772 13.1748,0.1032 C12.9138,0.1302 12.6878,0.2932 12.5808,0.5312 C12.0328,1.7432 11.2408,2.7572 10.4758,3.7372 C9.8008,4.6002 9.1638,5.4152 8.7348,6.3112 C7.8488,8.1602 7.8378,10.2352 8.6938,11.9072 C8.6628,12.6672 8.4428,13.4062 8.0518,14.0592 C7.6218,14.5622 7.2578,15.1222 6.9688,15.7252 C6.6798,16.3282 6.4708,16.9632 6.3468,17.6132 C6.0838,18.3262 5.6458,18.9612 5.0718,19.4612 C3.2308,19.8392 1.6198,21.1472 0.7338,22.9952 C0.4698,23.5442 0.2668,24.2522 0.1108,25.1582 C0.0418,25.5582 0.3108,25.9362 0.7098,26.0052 C0.7518,26.0132 0.7938,26.0162 0.8348,26.0162 C1.1858,26.0162 1.4948,25.7642 1.5568,25.4062 C1.6888,24.6352 1.8528,24.0542 2.0558,23.6302 C2.7688,22.1442 4.0618,21.1122 5.5158,20.8702 C5.6408,20.8492 5.7568,20.7972 5.8548,20.7172 C6.7228,20.0202 7.3768,19.0982 7.7488,18.0512 C7.7618,18.0142 7.7718,17.9762 7.7798,17.9372 C7.8778,17.3952 8.0508,16.8642 8.2928,16.3592 C8.5338,15.8552 8.8398,15.3892 9.2018,14.9722 C9.2278,14.9422 9.2508,14.9102 9.2718,14.8762 C9.8548,13.9312 10.1638,12.8442 10.1648,11.7312 C10.1658,11.6052 10.1328,11.4812 10.0718,11.3712 C9.3508,10.0862 9.3458,8.4312 10.0578,6.9452 C10.4188,6.1932 11.0078,5.4392 11.6318,4.6402 C12.2048,3.9062 12.8348,3.1002 13.3748,2.1802 C14.2528,3.2192 15.3038,4.1982 16.4598,5.0522 C18.1568,6.3052 18.3428,8.2302 17.9158,9.8532 C17.7238,10.2572 17.5718,10.6752 17.4608,11.0992 C17.4548,11.1202 17.4488,11.1402 17.4438,11.1612 C17.2408,11.9722 17.1868,12.8072 17.3008,13.6272 C16.9778,14.4492 16.4528,15.1752 15.7718,15.7382 C15.1318,16.1092 14.5398,16.5652 14.0118,17.0932 C13.4828,17.6212 13.0268,18.2142 12.6548,18.8542 C12.0928,19.5352 11.3668,20.0612 10.5438,20.3842 C10.2648,20.3452 9.9798,20.3252 9.6938,20.3252 C7.8728,20.3252 6.0418,21.1142 4.6668,22.4892 C3.6438,23.5122 2.8438,25.1872 2.1388,26.6652 C1.6708,27.6462 1.1408,28.7572 0.7938,29.0402 C0.5958,29.2022 0.4968,29.4572 0.5328,29.7102 C0.5688,29.9642 0.7338,30.1812 0.9698,30.2822 C1.9458,30.7012 3.8198,31.6582 4.8268,32.1732 C5.1658,32.3462 5.4198,32.4762 5.5318,32.5302 C6.3088,32.9072 7.1638,33.0992 8.0728,33.0992 C9.8938,33.0992 11.7288,32.3082 13.1088,30.9282 C13.3028,30.7332 13.4938,30.5152 13.6928,30.2632 C14.3078,29.5402 15.0978,29.0022 15.9898,28.7012 C16.5708,28.8652 17.1818,28.9482 17.8088,28.9482 C19.8448,28.9482 21.8958,28.0642 23.4388,26.5222 C25.4858,24.4752 26.3258,21.5772 25.6178,19.0722 C25.9188,18.1812 26.4548,17.3922 27.1578,16.7942 C27.4298,16.5792 27.6488,16.3882 27.8468,16.1902 C30.1178,13.9182 30.7398,10.6332 29.3228,8.3792 C28.1228,6.4662 27.3258,4.8182 26.8868,3.3412 L26.8868,3.3412 Z" id="Stroke-3" stroke="#FFFFFF" stroke-width="0.2"></path>
                <path d="M25.8667,11.4657 C25.7797,12.1057 25.4377,12.7647 24.9297,13.2727 C24.3187,13.8837 23.5467,14.2347 22.8117,14.2347 C22.5027,14.2347 22.0667,14.1677 21.7467,13.8487 C21.3667,13.4687 21.3457,12.9167 21.3667,12.6207 C21.4157,11.9367 21.7647,11.2247 22.3227,10.6667 C22.9337,10.0547 23.7047,9.7047 24.4397,9.7047 C24.7497,9.7047 25.1857,9.7717 25.5037,10.0907 C25.8157,10.4027 25.9447,10.8907 25.8667,11.4657 M24.4397,8.2377 C23.3187,8.2377 22.1687,8.7447 21.2847,9.6287 C20.4817,10.4327 19.9777,11.4847 19.9037,12.5147 C19.8637,13.0597 19.9157,14.0927 20.7097,14.8847 C21.3837,15.5597 22.2247,15.7007 22.8117,15.7007 C23.9327,15.7007 25.0817,15.1937 25.9657,14.3097 C26.7067,13.5687 27.1877,12.6287 27.3187,11.6637 C27.4587,10.6387 27.1747,9.6877 26.5407,9.0537 C25.8677,8.3797 25.0267,8.2377 24.4397,8.2377" id="Fill-5" fill="#39424E"></path>
                <path d="M25.8667,11.4657 C25.7797,12.1057 25.4377,12.7647 24.9297,13.2727 C24.3187,13.8837 23.5467,14.2347 22.8117,14.2347 C22.5027,14.2347 22.0667,14.1677 21.7467,13.8487 C21.3667,13.4687 21.3457,12.9167 21.3667,12.6207 C21.4157,11.9367 21.7647,11.2247 22.3227,10.6667 C22.9337,10.0547 23.7047,9.7047 24.4397,9.7047 C24.7497,9.7047 25.1857,9.7717 25.5037,10.0907 C25.8157,10.4027 25.9447,10.8907 25.8667,11.4657 L25.8667,11.4657 Z M24.4397,8.2377 C23.3187,8.2377 22.1687,8.7447 21.2847,9.6287 C20.4817,10.4327 19.9777,11.4847 19.9037,12.5147 C19.8637,13.0597 19.9157,14.0927 20.7097,14.8847 C21.3837,15.5597 22.2247,15.7007 22.8117,15.7007 C23.9327,15.7007 25.0817,15.1937 25.9657,14.3097 C26.7067,13.5687 27.1877,12.6287 27.3187,11.6637 C27.4587,10.6387 27.1747,9.6877 26.5407,9.0537 C25.8677,8.3797 25.0267,8.2377 24.4397,8.2377 L24.4397,8.2377 Z" id="Stroke-7" stroke="#FFFFFF" stroke-width="0.2"></path>
                <path d="M21.7356,21.1023 C21.6706,21.9973 21.2396,22.8863 20.5216,23.6043 C19.7446,24.3803 18.7536,24.8263 17.8026,24.8263 C17.3666,24.8263 16.7466,24.7273 16.2756,24.2563 C15.8616,23.8423 15.6616,23.2233 15.7136,22.5113 C15.7776,21.6163 16.2096,20.7273 16.9276,20.0093 C17.7036,19.2333 18.6946,18.7873 19.6466,18.7873 C20.0826,18.7873 20.7016,18.8863 21.1736,19.3583 C21.5876,19.7723 21.7876,20.3923 21.7356,21.1023 M19.6466,17.3213 C18.3086,17.3213 16.9396,17.9233 15.8906,18.9723 C14.9226,19.9403 14.3406,21.1603 14.2506,22.4063 C14.1686,23.5493 14.5186,24.5743 15.2386,25.2933 C16.0656,26.1193 17.0886,26.2933 17.8026,26.2933 C19.1396,26.2933 20.5086,25.6913 21.5586,24.6413 C22.5266,23.6743 23.1086,22.4553 23.1986,21.2083 C23.2806,20.0673 22.9306,19.0413 22.2106,18.3223 C21.3836,17.4943 20.3596,17.3213 19.6466,17.3213" id="Fill-9" fill="#39424E"></path>
                <path d="M21.7356,21.1023 C21.6706,21.9973 21.2396,22.8863 20.5216,23.6043 C19.7446,24.3803 18.7536,24.8263 17.8026,24.8263 C17.3666,24.8263 16.7466,24.7273 16.2756,24.2563 C15.8616,23.8423 15.6616,23.2233 15.7136,22.5113 C15.7776,21.6163 16.2096,20.7273 16.9276,20.0093 C17.7036,19.2333 18.6946,18.7873 19.6466,18.7873 C20.0826,18.7873 20.7016,18.8863 21.1736,19.3583 C21.5876,19.7723 21.7876,20.3923 21.7356,21.1023 L21.7356,21.1023 Z M19.6466,17.3213 C18.3086,17.3213 16.9396,17.9233 15.8906,18.9723 C14.9226,19.9403 14.3406,21.1603 14.2506,22.4063 C14.1686,23.5493 14.5186,24.5743 15.2386,25.2933 C16.0656,26.1193 17.0886,26.2933 17.8026,26.2933 C19.1396,26.2933 20.5086,25.6913 21.5586,24.6413 C22.5266,23.6743 23.1086,22.4553 23.1986,21.2083 C23.2806,20.0673 22.9306,19.0413 22.2106,18.3223 C21.3836,17.4943 20.3596,17.3213 19.6466,17.3213 L19.6466,17.3213 Z" id="Stroke-11" stroke="#FFFFFF" stroke-width="0.2"></path>
                <path d="M11.1277,26.2054 C11.0407,26.8454 10.6987,27.5044 10.1907,28.0134 C9.5797,28.6234 8.8077,28.9734 8.0737,28.9734 C7.7637,28.9734 7.3267,28.9064 7.0077,28.5874 C6.6957,28.2754 6.5677,27.7864 6.6457,27.2124 C6.7327,26.5724 7.0747,25.9134 7.5837,25.4044 C8.1937,24.7934 8.9657,24.4434 9.7007,24.4434 C10.0107,24.4434 10.4467,24.5104 10.7657,24.8294 C11.0777,25.1414 11.2057,25.6304 11.1277,26.2054 M9.7007,22.9774 C8.5787,22.9774 7.4287,23.4844 6.5467,24.3684 C5.8057,25.1094 5.3247,26.0484 5.1927,27.0144 C5.0537,28.0394 5.3367,28.9914 5.9707,29.6244 C6.6447,30.2984 7.4867,30.4404 8.0737,30.4404 C9.1947,30.4404 10.3437,29.9344 11.2277,29.0504 C11.9687,28.3094 12.4497,27.3684 12.5807,26.4034 C12.7207,25.3784 12.4367,24.4264 11.8027,23.7934 C11.1277,23.1184 10.2877,22.9774 9.7007,22.9774" id="Fill-13" fill="#39424E"></path>
                <path d="M11.1277,26.2054 C11.0407,26.8454 10.6987,27.5044 10.1907,28.0134 C9.5797,28.6234 8.8077,28.9734 8.0737,28.9734 C7.7637,28.9734 7.3267,28.9064 7.0077,28.5874 C6.6957,28.2754 6.5677,27.7864 6.6457,27.2124 C6.7327,26.5724 7.0747,25.9134 7.5837,25.4044 C8.1937,24.7934 8.9657,24.4434 9.7007,24.4434 C10.0107,24.4434 10.4467,24.5104 10.7657,24.8294 C11.0777,25.1414 11.2057,25.6304 11.1277,26.2054 L11.1277,26.2054 Z M9.7007,22.9774 C8.5787,22.9774 7.4287,23.4844 6.5467,24.3684 C5.8057,25.1094 5.3247,26.0484 5.1927,27.0144 C5.0537,28.0394 5.3367,28.9914 5.9707,29.6244 C6.6447,30.2984 7.4867,30.4404 8.0737,30.4404 C9.1947,30.4404 10.3437,29.9344 11.2277,29.0504 C11.9687,28.3094 12.4497,27.3684 12.5807,26.4034 C12.7207,25.3784 12.4367,24.4264 11.8027,23.7934 C11.1277,23.1184 10.2877,22.9774 9.7007,22.9774 L9.7007,22.9774 Z" id="Stroke-15" stroke="#FFFFFF" stroke-width="0.2"></path>
            </g>
        </g>
    </g>
</svg>