<?xml version="1.0" encoding="UTF-8" standalone="no"?>
<svg width="15px" height="35px" viewBox="0 0 15 35" version="1.1" xmlns="http://www.w3.org/2000/svg" xmlns:xlink="http://www.w3.org/1999/xlink">
    <!-- Generator: sketchtool 41.2 (35397) - http://www.bohemiancoding.com/sketch -->
    <title>66088D0E-E191-4777-A56C-A01D7A557EA6</title>
    <desc>Created with sketchtool.</desc>
    <defs></defs>
    <g id="Homepage" stroke="none" stroke-width="1" fill="none" fill-rule="evenodd">
        <g id="0.0-Homepage---States" transform="translate(-225.000000, -605.000000)">
            <g id="icn_Dairy" transform="translate(225.000000, 606.000000)">
                <path d="M0.843,33.0017 L13.671,33.0017 L13.671,7.8457 L0.843,7.8457 L0.843,33.0017 Z M1.557,2.9747 L12.724,2.9747 L13.616,7.3517 L0.884,7.3517 L1.557,2.9747 Z M1.592,1.9097 C1.592,1.3917 2.03,0.8437 2.445,0.8437 L11.812,0.8437 C12.226,0.8437 12.664,1.3917 12.664,1.9097 C12.664,2.1657 12.665,2.3487 12.667,2.4807 L1.592,2.4807 L1.592,1.9097 Z M14.172,7.5987 C14.172,7.5617 14.164,7.5257 14.148,7.4937 L13.167,2.6787 L13.167,2.6777 C13.164,2.6397 13.158,2.4867 13.158,1.9097 C13.158,1.1087 12.504,0.3497 11.812,0.3497 L2.445,0.3497 C1.753,0.3497 1.099,1.1087 1.099,1.9097 L1.099,2.7087 L0.353,7.5617 C0.352,7.5677 0.354,7.5727 0.354,7.5787 C0.354,7.5857 0.35,7.5917 0.35,7.5987 L0.35,33.2477 C0.35,33.3847 0.46,33.4947 0.597,33.4947 L13.918,33.4947 C14.054,33.4947 14.165,33.3847 14.165,33.2477 L14.165,7.6327 C14.166,7.6217 14.172,7.6107 14.172,7.5987 L14.172,7.5987 Z" id="Fill-1" fill="#39424E"></path>
                <path d="M0.843,33.0017 L13.671,33.0017 L13.671,7.8457 L0.843,7.8457 L0.843,33.0017 Z M1.557,2.9747 L12.724,2.9747 L13.616,7.3517 L0.884,7.3517 L1.557,2.9747 L1.557,2.9747 Z M1.592,1.9097 C1.592,1.3917 2.03,0.8437 2.445,0.8437 L11.812,0.8437 C12.226,0.8437 12.664,1.3917 12.664,1.9097 C12.664,2.1657 12.665,2.3487 12.667,2.4807 L1.592,2.4807 L1.592,1.9097 L1.592,1.9097 Z M14.172,7.5987 C14.172,7.5617 14.164,7.5257 14.148,7.4937 L13.167,2.6787 L13.167,2.6777 C13.164,2.6397 13.158,2.4867 13.158,1.9097 C13.158,1.1087 12.504,0.3497 11.812,0.3497 L2.445,0.3497 C1.753,0.3497 1.099,1.1087 1.099,1.9097 L1.099,2.7087 L0.353,7.5617 C0.352,7.5677 0.354,7.5727 0.354,7.5787 C0.354,7.5857 0.35,7.5917 0.35,7.5987 L0.35,33.2477 C0.35,33.3847 0.46,33.4947 0.597,33.4947 L13.918,33.4947 C14.054,33.4947 14.165,33.3847 14.165,33.2477 L14.165,7.6327 C14.166,7.6217 14.172,7.6107 14.172,7.5987 L14.172,7.5987 Z" id="Stroke-3" stroke="#39424E" stroke-width="0.7"></path>
                <path d="M7.3845,6.3369 C6.7325,6.3369 6.1825,6.0209 6.1825,5.6459 L6.1825,5.6189 C6.4875,5.8309 6.9095,5.9599 7.3845,5.9599 C7.8595,5.9599 8.2815,5.8309 8.5865,5.6189 L8.5865,5.6459 C8.5865,6.0209 8.0365,6.3369 7.3845,6.3369 M7.3845,4.0849 C8.0365,4.0849 8.5865,4.4019 8.5865,4.7759 C8.5865,5.1509 8.0365,5.4669 7.3845,5.4669 C6.7475,5.4669 6.1895,5.1479 6.1835,4.7819 L6.1835,4.7699 C6.1895,4.3979 6.7365,4.0849 7.3845,4.0849 M7.3845,3.5919 C6.4825,3.5919 5.7735,4.0619 5.7035,4.6769 C5.6975,4.6969 5.6905,4.7169 5.6905,4.7389 L5.6905,4.7679 C5.6905,4.7709 5.6895,4.7729 5.6895,4.7759 C5.6895,4.7789 5.6905,4.7809 5.6905,4.7839 L5.6895,5.6459 C5.6895,6.3099 6.4345,6.8299 7.3845,6.8299 C8.3355,6.8299 9.0805,6.3099 9.0805,5.6459 L9.0805,4.7389 C9.0805,4.7099 9.0735,4.6829 9.0645,4.6569 C8.9795,4.0519 8.2765,3.5919 7.3845,3.5919" id="Fill-4" fill="#39424E"></path>
                <path d="M7.3845,6.3369 C6.7325,6.3369 6.1825,6.0209 6.1825,5.6459 L6.1825,5.6189 C6.4875,5.8309 6.9095,5.9599 7.3845,5.9599 C7.8595,5.9599 8.2815,5.8309 8.5865,5.6189 L8.5865,5.6459 C8.5865,6.0209 8.0365,6.3369 7.3845,6.3369 L7.3845,6.3369 Z M7.3845,4.0849 C8.0365,4.0849 8.5865,4.4019 8.5865,4.7759 C8.5865,5.1509 8.0365,5.4669 7.3845,5.4669 C6.7475,5.4669 6.1895,5.1479 6.1835,4.7819 L6.1835,4.7699 C6.1895,4.3979 6.7365,4.0849 7.3845,4.0849 L7.3845,4.0849 Z M7.3845,3.5919 C6.4825,3.5919 5.7735,4.0619 5.7035,4.6769 C5.6975,4.6969 5.6905,4.7169 5.6905,4.7389 L5.6905,4.7679 C5.6905,4.7709 5.6895,4.7729 5.6895,4.7759 C5.6895,4.7789 5.6905,4.7809 5.6905,4.7839 L5.6895,5.6459 C5.6895,6.3099 6.4345,6.8299 7.3845,6.8299 C8.3355,6.8299 9.0805,6.3099 9.0805,5.6459 L9.0805,4.7389 C9.0805,4.7099 9.0735,4.6829 9.0645,4.6569 C8.9795,4.0519 8.2765,3.5919 7.3845,3.5919 L7.3845,3.5919 Z" id="Stroke-5" stroke="#39424E" stroke-width="0.7"></path>
            </g>
        </g>
    </g>
</svg>