<?xml version="1.0" encoding="UTF-8" standalone="no"?>
<svg width="22px" height="32px" viewBox="0 0 22 32" version="1.1" xmlns="http://www.w3.org/2000/svg" xmlns:xlink="http://www.w3.org/1999/xlink">
    <!-- Generator: sketchtool 41.2 (35397) - http://www.bohemiancoding.com/sketch -->
    <title>B397F86B-E8C2-4EFE-AD50-F7B688DAE67B</title>
    <desc>Created with sketchtool.</desc>
    <defs>
        <path d="M21.4369796,5.23942201 C21.4342484,5.58686566 21.4035783,5.93361289 21.347,6.274 C21.253,6.832 21.109,7.381 20.898,7.914 C20.795,8.164 20.683,8.411 20.55,8.66 C20.874,8.915 21.124,9.247 21.263,9.643 C21.519,10.373 21.346,11.167 20.869,11.82 C20.149,10.855 19.181,10.219 18.36,9.912 C17.532,9.603 16.741,9.44 15.992,9.415 C16.366,8.924 16.914,8.515 17.585,8.28 C17.973,8.144 18.367,8.079 18.746,8.078 C18.988,7.851 19.211,7.542 19.406,7.208 C19.627,6.821 19.817,6.402 19.94,5.966 C20.197,5.098 20.244,4.163 19.991,3.295 C19.853,2.826 19.688,2.381 19.463,1.983 C19.243,1.589 18.948,1.238 18.611,1.111 C18.444,1.049 18.275,1.032 18.106,1.106 C18.07,1.125 17.995,1.178 17.959,1.233 C17.92,1.292 17.896,1.363 17.892,1.436 C17.885,1.511 17.9,1.574 17.935,1.64 C17.958,1.687 18.016,1.745 18.072,1.778 C18.193,1.849 18.327,1.836 18.408,1.763 C18.607,1.584 18.914,1.601 19.094,1.8 C19.273,2 19.255,2.307 19.056,2.486 C18.995,2.54 18.926,2.576 18.851,2.595 L18.712,2.63 C18.311,2.73 17.884,2.613 17.608,2.365 C17.468,2.237 17.357,2.093 17.284,1.904 C17.218,1.737 17.198,1.54 17.22,1.362 C17.267,1 17.478,0.666 17.839,0.49 C18.0188971,0.401985831 18.2315351,0.353260727 18.442533,0.35015801 L18.4856479,0.35015801 C18.6003003,0.351834901 18.7138056,0.366893722 18.822,0.397 C19.146,0.478 19.42,0.65 19.646,0.844 C19.873,1.039 20.061,1.26 20.226,1.488 C20.554,1.945 20.795,2.441 21,2.929 C21.2923123,3.62722769 21.4310327,4.38283162 21.4369796,5.13775563 L21.4369796,5.23942226 L21.4369796,5.23942201 Z M1.97095892,31.9621084 C1.35697611,31.9576142 0.737795676,31.9024683 0.115,31.791 C7.069,28.385 9.014,23.043 10.29,16.92 C11.07,13.172 12.769,10.327 15.803,10.327 C16.48,10.327 17.222,10.469 18.037,10.773 C19.897,11.469 22.72,14.177 19.631,19.202 C16.7860031,23.8294933 9.88726332,31.9054655 2.13480878,31.9621084 L1.97095446,31.9621084 L1.97095892,31.9621084 Z" id="path-1"></path>
    </defs>
    <g id="Homepage" stroke="none" stroke-width="1" fill="none" fill-rule="evenodd">
        <g id="0.0-Homepage---States" transform="translate(-54.000000, -607.000000)">
            <g id="ic_MediumSpicy" transform="translate(54.000000, 607.000000)">
                <mask id="mask-2" fill="white">
                    <use xlink:href="#path-1"></use>
                </mask>
                <g id="Clip-2"></g>
                <path d="M20.9998,2.9287 C20.7958,2.4407 20.5538,1.9447 20.2258,1.4877 C20.0608,1.2597 19.8728,1.0387 19.6458,0.8437 C19.4198,0.6497 19.1458,0.4777 18.8218,0.3967 C18.5048,0.3097 18.1308,0.3467 17.8388,0.4907 C17.4778,0.6657 17.2678,0.9997 17.2198,1.3617 C17.1978,1.5397 17.2178,1.7367 17.2838,1.9047 C17.3568,2.0937 17.4678,2.2367 17.6078,2.3647 C17.8838,2.6127 18.3118,2.7297 18.7118,2.6297 L18.8518,2.5947 C18.9258,2.5757 18.9958,2.5397 19.0558,2.4857 C19.2558,2.3067 19.2728,1.9997 19.0938,1.7997 C18.9148,1.6007 18.6078,1.5837 18.4078,1.7627 C18.3268,1.8357 18.1938,1.8487 18.0718,1.7777 C18.0158,1.7447 17.9578,1.6867 17.9348,1.6397 C17.8998,1.5737 17.8848,1.5107 17.8918,1.4357 C17.8958,1.3627 17.9198,1.2917 17.9598,1.2327 C17.9948,1.1777 18.0698,1.1247 18.1058,1.1057 C18.2758,1.0327 18.4438,1.0497 18.6108,1.1107 C18.9478,1.2387 19.2428,1.5897 19.4638,1.9827 C19.6888,2.3817 19.8528,2.8257 19.9908,3.2947 C20.2438,4.1637 20.1968,5.0977 19.9408,5.9657 C19.8168,6.4017 19.6268,6.8207 19.4058,7.2077 C19.2118,7.5417 18.9878,7.8507 18.7458,8.0777 C18.3668,8.0797 17.9728,8.1437 17.5848,8.2797 C16.9138,8.5147 16.3658,8.9237 15.9918,9.4147 C16.7408,9.4397 17.5318,9.6027 18.3598,9.9117 C19.1808,10.2197 20.1488,10.8547 20.8688,11.8197 C21.3458,11.1667 21.5188,10.3737 21.2628,9.6427 C21.1238,9.2467 20.8738,8.9147 20.5498,8.6597 C20.6828,8.4117 20.7958,8.1637 20.8978,7.9137 C21.1098,7.3807 21.2528,6.8317 21.3468,6.2737 C21.5318,5.1617 21.4398,3.9797 20.9998,2.9287 L20.9998,2.9287 Z M18.0368,10.7727 C13.5728,9.1027 11.2448,12.3357 10.2898,16.9197 C9.0148,23.0427 7.0698,28.3847 0.1148,31.7907 C8.6688,33.3217 16.5408,24.2277 19.6308,19.2027 C22.7208,14.1767 19.8968,11.4687 18.0368,10.7727 L18.0368,10.7727 Z" id="Stroke-1" stroke="#39424E" stroke-width="2" mask="url(#mask-2)"></path>
            </g>
        </g>
    </g>
</svg>