<?xml version="1.0" encoding="UTF-8" standalone="no"?>
<svg width="32px" height="33px" viewBox="0 0 32 33" version="1.1" xmlns="http://www.w3.org/2000/svg" xmlns:xlink="http://www.w3.org/1999/xlink">
    <!-- Generator: sketchtool 41.2 (35397) - http://www.bohemiancoding.com/sketch -->
    <title>00591DE9-3F9A-4A47-9E81-76EE00D4B09B</title>
    <desc>Created with sketchtool.</desc>
    <defs></defs>
    <g id="Homepage" stroke="none" stroke-width="1" fill="none" fill-rule="evenodd">
        <g id="0.0-Homepage---States" transform="translate(-54.000000, -713.000000)">
            <g id="icn_ContainsNuts" transform="translate(54.000000, 713.000000)">
                <path d="M24.847,25.0586 C19.423,31.9596 8.322,32.2476 5.734,30.2136 L5.662,30.1566 L26.483,7.7366 C26.555,7.7936 26.62,7.7856 26.684,7.7776 C32.722,12.5246 28.972,19.8106 24.847,25.0586 L24.847,25.0586 Z M4.511,9.1316 C8.636,3.8846 14.894,-1.4884 20.861,3.2006 C20.933,3.2576 20.884,3.3936 20.948,3.3856 L4.088,28.9776 L4.017,28.9216 C1.421,26.8236 -0.921,15.9686 4.511,9.1316 L4.511,9.1316 Z M23.978,5.3016 L24.614,7.8956 L7.478,26.2926 L21.307,5.2966 L23.978,5.3016 Z M27.539,6.7636 C27.323,6.5946 27.108,6.4246 26.828,6.2626 L26.404,5.9886 L25.654,6.7946 L24.995,4.0086 L22.132,4.0256 L22.738,3.1066 L22.371,2.7596 C22.155,2.5906 21.932,2.3566 21.716,2.1866 C16.397,-1.9944 9.946,0.1456 3.625,8.2616 C-2.025,15.4496 0.024,27.1206 3.467,29.7686 C3.683,29.9386 3.898,30.1076 4.178,30.2696 L4.322,30.3826 L4.473,30.5596 C4.689,30.7296 4.912,30.9636 5.128,31.1326 C8.507,33.7886 20.339,33.0876 25.989,25.8986 C32.303,17.7186 32.859,10.9456 27.539,6.7636 L27.539,6.7636 Z" id="Fill-1" fill="#39424E"></path>
                <path d="M24.847,25.0586 C19.423,31.9596 8.322,32.2476 5.734,30.2136 L5.662,30.1566 L26.483,7.7366 C26.555,7.7936 26.62,7.7856 26.684,7.7776 C32.722,12.5246 28.972,19.8106 24.847,25.0586 L24.847,25.0586 Z M4.511,9.1316 C8.636,3.8846 14.894,-1.4884 20.861,3.2006 C20.933,3.2576 20.884,3.3936 20.948,3.3856 L4.088,28.9776 L4.017,28.9216 C1.421,26.8236 -0.921,15.9686 4.511,9.1316 L4.511,9.1316 Z M23.978,5.3016 L24.614,7.8956 L7.478,26.2926 L21.307,5.2966 L23.978,5.3016 L23.978,5.3016 Z M27.539,6.7636 C27.323,6.5946 27.108,6.4246 26.828,6.2626 L26.404,5.9886 L25.654,6.7946 L24.995,4.0086 L22.132,4.0256 L22.738,3.1066 L22.371,2.7596 C22.155,2.5906 21.932,2.3566 21.716,2.1866 C16.397,-1.9944 9.946,0.1456 3.625,8.2616 C-2.025,15.4496 0.024,27.1206 3.467,29.7686 C3.683,29.9386 3.898,30.1076 4.178,30.2696 L4.322,30.3826 L4.473,30.5596 C4.689,30.7296 4.912,30.9636 5.128,31.1326 C8.507,33.7886 20.339,33.0876 25.989,25.8986 C32.303,17.7186 32.859,10.9456 27.539,6.7636 L27.539,6.7636 Z" id="Stroke-3" stroke="#FFFFFF" stroke-width="0.2"></path>
            </g>
        </g>
    </g>
</svg>