<svg xmlns="http://www.w3.org/2000/svg" xmlns:xlink="http://www.w3.org/1999/xlink" width="10" height="6" viewBox="0 0 10 6">
    <defs>
        <path id="a" d="M235.04 23.23a.137.137 0 0 1-.002-.191.136.136 0 0 1 .192.001l3.72 3.719c.053.053.052.14 0 .192a.136.136 0 0 1-.191-.002l-3.72-3.718zm7.73-.19a.137.137 0 0 1 .191-.001.136.136 0 0 1-.001.192l-3.719 3.718a.137.137 0 0 1-.192.002.136.136 0 0 1 .002-.192l3.718-3.719z"/>
    </defs>
    <g fill="none" fill-rule="evenodd" transform="translate(-234 -22)">
        <use fill="#E85826" xlink:href="#a"/>
        <path stroke="#E85826" stroke-width=".5" d="M234.863 23.408l3.719 3.718c.15.15.395.152.545.002a.387.387 0 0 0-.001-.546l-3.719-3.719a.386.386 0 0 0-.545-.001.387.387 0 0 0 .001.546zm7.73-.545l-3.72 3.72a.386.386 0 0 0 0 .545c.149.15.394.149.545-.002l3.719-3.718a.386.386 0 0 0 .001-.546.387.387 0 0 0-.546.001z"/>
    </g>
</svg>
