<?xml version="1.0" encoding="UTF-8" standalone="no"?>
<svg width="23px" height="41px" viewBox="0 0 23 41" version="1.1" xmlns="http://www.w3.org/2000/svg" xmlns:xlink="http://www.w3.org/1999/xlink">
    <!-- Generator: sketchtool 3.8.3 (29802) - http://www.bohemiancoding.com/sketch -->
    <title>197AF9DF-353F-4A20-84DF-27218ED7D6D6</title>
    <desc>Created with sketchtool.</desc>
    <defs>
        <path d="M10.5490939,27.5013586 L-7.41610687,9.53615781 C-7.67547466,9.27679001 -8.10108936,9.27051626 -8.35973099,9.52915789 C-8.62017583,9.78960273 -8.61523866,10.2102744 -8.35273108,10.472782 L9.9250699,28.750583 C10.0925225,28.9180356 10.3292707,28.9799928 10.545642,28.9332733 C10.7631695,28.9835026 11.0018185,28.9218823 11.1731179,28.750583 L29.4509188,10.472782 C29.7102866,10.2134142 29.7165604,9.78779953 29.4579188,9.52915789 C29.1974739,9.26871306 28.7768022,9.27365023 28.5142946,9.53615781 L10.5490939,27.5013586 Z" id="path-1"></path>
        <mask id="mask-2" maskContentUnits="userSpaceOnUse" maskUnits="objectBoundingBox" x="-1" y="-1" width="40.201068" height="21.6136905">
            <rect x="-9.55236374" y="8.33652515" width="40.201068" height="21.6136905" fill="white"></rect>
            <use xlink:href="#path-1" fill="black"></use>
        </mask>
    </defs>
    <g id="Homepage" stroke="none" stroke-width="1" fill="none" fill-rule="evenodd">
        <g id="1.1-Homepage" transform="translate(-1398.000000, -283.000000)">
            <g id="Scroll-Arrow" transform="translate(1399.000000, 284.000000)">
                <g id="Arrow" transform="translate(10.548170, 19.143370) rotate(-90.000000) translate(-10.548170, -19.143370) ">
                    <use fill="#FFFFFF" fill-rule="evenodd" xlink:href="#path-1"></use>
                    <use stroke="#FFFFFF" mask="url(#mask-2)" stroke-width="2" xlink:href="#path-1"></use>
                </g>
            </g>
        </g>
    </g>
</svg>