<?xml version="1.0" encoding="UTF-8" standalone="no"?>
<svg width="10px" height="6px" viewBox="0 0 10 6" version="1.1" xmlns="http://www.w3.org/2000/svg" xmlns:xlink="http://www.w3.org/1999/xlink">
    <!-- Generator: sketchtool 39.1 (31720) - http://www.bohemiancoding.com/sketch -->
    <title>629E2944-9B4D-4F91-84BE-DDCBB57D5A95</title>
    <desc>Created with sketchtool.</desc>
    <defs>
        <path d="M149.039896,11.2307998 C148.986488,11.1773917 148.98739,11.0898986 149.038472,11.038816 C149.091094,10.9861944 149.177687,10.9874708 149.230456,11.0402402 L152.949142,14.7589262 C153.00255,14.8123343 153.001649,14.8998274 152.950566,14.95091 C152.897945,15.0035316 152.811352,15.0022552 152.758582,14.9494859 L149.039896,11.2307998 Z M156.7692,11.0402402 C156.822608,10.986832 156.910101,10.9877334 156.961184,11.038816 C157.013806,11.0914376 157.012529,11.1780305 156.95976,11.2307998 L153.241074,14.9494859 C153.187666,15.002894 153.100173,15.0019927 153.04909,14.95091 C152.996468,14.8982884 152.997745,14.8116955 153.050514,14.7589262 L156.7692,11.0402402 Z" id="path-1"></path>
        <mask id="mask-2" maskContentUnits="userSpaceOnUse" maskUnits="objectBoundingBox" x="-0.5" y="-0.5" width="9" height="4.98972602">
            <rect x="148.5" y="10.5" width="9" height="4.98972602" fill="white"></rect>
            <use xlink:href="#path-1" fill="black"></use>
        </mask>
    </defs>
    <g id="Homepage" stroke="none" stroke-width="1" fill="none" fill-rule="evenodd">
        <g id="1.2-Homepage---Scrolled" transform="translate(-1294.000000, -76.000000)">
            <g id="Group-10" transform="translate(0.000000, 38.000000)">
                <g id="Group-8" transform="translate(1146.000000, 28.000000)">
                    <g id="Arrow">
                        <use fill="#F6A623" fill-rule="evenodd" xlink:href="#path-1"></use>
                        <use stroke="#F6A623" mask="url(#mask-2)" stroke-width="1" xlink:href="#path-1"></use>
                    </g>
                </g>
            </g>
        </g>
    </g>
</svg>