<?xml version="1.0" encoding="UTF-8" standalone="no"?>
<svg width="19px" height="17px" viewBox="0 0 19 17" version="1.1" xmlns="http://www.w3.org/2000/svg" xmlns:xlink="http://www.w3.org/1999/xlink">
    <!-- Generator: sketchtool 3.7.1 (28215) - http://www.bohemiancoding.com/sketch -->
    <title>678DAE96-DA05-4774-BF60-F064674D65C4</title>
    <desc>Created with sketchtool.</desc>
    <defs></defs>
    <g id="Homepage" stroke="none" stroke-width="1" fill="none" fill-rule="evenodd">
        <g id="0.1-Homepage---States" transform="translate(-350.000000, -623.000000)" fill="#FFFFFF">
            <g id="btn_SortbyInactive" transform="translate(331.000000, 614.000000)">
                <g id="Group-14" transform="translate(18.000000, 8.000000)">
                    <g id="Group-13" transform="translate(1.000000, 1.000000)">
                        <path d="M4.00994759,3.7138531 L1.81931248,5.90448821 C1.42835399,6.2954467 0.788163436,6.28912509 0.402838103,5.90379976 L0.295742155,5.79670381 C-0.0955965543,5.4053651 -0.10132234,4.77660547 0.295053699,4.38022944 L4.38022944,0.295053699 C4.45030295,0.22498018 4.52838311,0.167669386 4.61156734,0.12301608 C4.99035245,-0.0848083451 5.47268189,-0.0305078961 5.79824349,0.295053699 L9.88341922,4.38022944 C10.2743777,4.77118792 10.2680561,5.41137848 9.88273077,5.79670381 L9.77563482,5.90379976 C9.38429611,6.29513847 8.75553648,6.30086425 8.35916044,5.90448821 L6.22482726,3.77015503 L6.22482726,8.70582761 C6.22482726,9.25554354 5.77661331,9.70117635 5.22107473,9.70117635 L5.01370013,9.70117635 C4.45934291,9.70117635 4.00994759,9.25895946 4.00994759,8.70582761 L4.00994759,3.7138531 Z" id="Rectangle-108"></path>
                        <path d="M14.1642398,12.9873232 L16.3548749,10.7966881 C16.7458334,10.4057296 17.3860239,10.4120513 17.7713493,10.7973766 L17.8784452,10.9044725 C18.2697839,11.2958112 18.2755097,11.9245709 17.8791337,12.3209469 L13.7939579,16.4061226 C13.7238844,16.4761962 13.6458042,16.533507 13.56262,16.5781603 C13.1838349,16.7859847 12.7015055,16.7316842 12.3759439,16.4061226 L8.29076814,12.3209469 C7.89980965,11.9299884 7.90613126,11.2897979 8.29145659,10.9044725 L8.39855254,10.7973766 C8.78989125,10.4060379 9.41865088,10.4003121 9.81502692,10.7966881 L11.9493601,12.9310213 L11.9493601,7.99534874 C11.9493601,7.44563281 12.397574,7 12.9531126,7 L13.1604872,7 C13.7148444,7 14.1642398,7.44221689 14.1642398,7.99534874 L14.1642398,12.9873232 Z" id="Rectangle-108"></path>
                    </g>
                </g>
            </g>
        </g>
    </g>
</svg>