<svg width="111" height="27" viewBox="0 0 111 27" xmlns="http://www.w3.org/2000/svg"><title>465B349F-5110-4930-A868-07F464AD4B10</title><g fill="none" fill-rule="evenodd"><path d="M25.37 9.295c-.25-.944-.613-1.856-1.09-2.725-.757-1.382-1.76-2.586-2.98-3.58-1.265-1.028-2.708-1.785-4.29-2.25-1.133-.33-2.3-.5-3.47-.5-1.303 0-2.593.208-3.834.617-1.224.402-2.37.99-3.41 1.748l-.19.14.012-.012c-3.39 2.48-5.59 6.465-5.59 10.96 0 1.534.256 3.008.728 4.383.236.745.545 1.467.927 2.162.758 1.382 1.76 2.586 2.982 3.58 1.264 1.03 2.706 1.786 4.288 2.25 1.133.33 2.3.5 3.47.5 1.303 0 2.593-.207 3.835-.616 1.223-.403 2.37-.99 3.41-1.75.47-.342.915-.717 1.33-1.122l.003-.002c2.713-2.487 4.41-6.043 4.41-9.993 0-1.316-.188-2.587-.54-3.79" fill="#FCD01F"/><path d="M15.15 8.07c.91-2.12.44-4.69-1.794-4.98-1.49-.192-2.778.95-3.23 2.142-.538 1.423-.355 2.754-.183 3.683.184.997.675 1.476 1.245 1.72.833.358 1.697.075 2.313-.41.736-.58 1.31-1.356 1.65-2.155M14.666 22.982c-.058 0-.115-.013-.17-.04-.094-.045-.255-.196-.198-.447.005-.022.033-.118.067-.203.292-.727 1.687-4.06 1.738-4.182.06-.14.1-.35-.048-.55-.04-.053-.086-.096-.144-.132-.075-.046-.168-.074-.252-.076h-.022c-.04 0-.184.007-.31.105-.113.087-.156.168-.206.26l-.023.043-.03.057-1.984 3.933c-.04.087-.13.23-.162.273-.065.086-.128.122-.17.143-.11.052-.23.052-.34 0-.12-.06-.235-.215-.204-.42.004-.025.013-.058.03-.11.027-.078.073-.193.075-.198.14-.355 1.617-4.153 1.708-4.41.105-.3-.07-.518-.175-.592-.064-.044-.13-.085-.26-.1l-.052-.002c-.095 0-.193.03-.275.08-.035.024-.07.05-.123.11-.092.14-.887 1.74-1.415 2.803-.48.97-.756 1.523-.796 1.587l-.01.02c-.016.033-.038.078-.07.12-.077.11-.165.17-.268.186-.025.004-.048.006-.07.006-.056 0-.097-.012-.13-.023-.115-.04-.243-.164-.25-.344-.004-.087.03-.234.12-.508l.01-.03v-.008c.467-1.42 1.428-4.05 1.818-4.78.035-.07.3-.745.99-1.072.39-.184.744-.272 1.312-.204.774.094 1.598.542 1.84.665.66.335 1.265.8 1.473 1.17.33.592.354 1.434-.157 2.462-.627 1.265-2.315 3.946-2.33 3.968-.066.103-.194.285-.302.363-.07.05-.15.076-.23.076" fill="#FFF"/><path d="M18.756 16.04c-.134-1.074-.77-2.45-2.624-3.42-.055-.03-1.253-.74-3.093-.994-.716-.1-1.954-.143-3.094.03-1.347.204-2.22.562-2.51.72-.318.175-.433.582-.24.9.126.21.43.418.832.26 0 0 .356-.167.83-.333.23-.08.492-.158.74-.22.57-.14 1.018-.202 1.378-.235.37-.034.646-.038.82-.038 2.104 0 3.676.553 4.686 1.36.61.488 1.023 1.145 1.182 1.718.217.78.278 1.582-.283 2.716-.595 1.206-2.278 3.89-2.32 3.95-.045.073-.172.257-.26.32-.11.08-.206.035-.233.023-.017-.01-.15-.084-.11-.267.003-.01.028-.098.06-.178.295-.734 1.7-4.102 1.737-4.18.11-.234.122-.497-.038-.728-.057-.083-.122-.14-.198-.188-.105-.066-.23-.102-.344-.102 0 0-.243-.02-.456.158-.158.132-.204.26-.266.373l-.03.057-1.987 3.94c-.03.07-.116.206-.144.242-.046.06-.086.084-.11.096-.092.043-.166.014-.198 0-.056-.028-.135-.114-.114-.25.002-.016.012-.047.024-.083.025-.073.07-.19.07-.19.142-.356 1.613-4.15 1.71-4.417.15-.403-.07-.692-.223-.802-.07-.05-.173-.112-.34-.13-.143-.015-.31.017-.455.115-.053.037-.118.09-.19.194-.093.138-2.088 4.22-2.183 4.372-.015.023-.04.082-.075.13-.053.076-.105.11-.16.12-.06.01-.088 0-.122-.01-.058-.02-.136-.09-.14-.198-.005-.11.116-.46.124-.488.455-1.39 1.414-4.022 1.804-4.755.25-.47.68-.743 1.22-.74.69.005 1.24.36 1.614.563.048.026.11.058.172.084.152.065.33.052.478-.05.055-.04.103-.092.145-.167.055-.1.076-.24.03-.375-.066-.196-.25-.294-.283-.314-.57-.336-1.5-.572-1.92-.596-.11-.007-.275-.024-.482.004-.496.065-.96.304-1.3.81-.516.764-1.983 5.1-2.282 6.09-.11.363-.026.596.094.766.122.172.3.277.42.312.345.103.613-.005.797-.163.097-.083.225-.248.316-.445 0 0 1.986-4.277 2.12-4.458.05-.068.14-.058.182-.02.028.028.054.073.032.137-.523 1.47-1.728 4.292-1.81 4.532-.063.18-.13.336-.148.484-.027.21.02.397.146.58.045.066.11.128.17.172.148.116.354.173.513.166.326-.013.56-.183.714-.433.055-.09.097-.18.134-.25 0 0 2.04-4.198 2.168-4.37.015-.02.044-.04.075-.045.026-.004.05 0 .08.012.02.01.04.026.055.057.01.02.017.056.005.09-.29.845-1.79 4.24-1.846 4.394-.03.087-.083.207-.107.294-.082.294.01.622.27.842.142.12.393.214.628.177.232-.036.46-.175.64-.39.193-.23.383-.508.442-.597 0 0 1.49-2.17 2.248-3.46.73-1.245.934-2.302.81-3.283" fill="#343433"/><path d="M15.276 4.095c-.438-.714-1.344-1.282-2.475-1.187-1.08.09-2 .767-2.506 1.432-.647.85-1.088 1.937-1.128 3.49-.017.643.068 1.37.22 2.18.152.815.395 1.566.553 2.797.017.138.105 1.275-.213 2.372-.127.435-.333 1.05-.575 1.6-.338.773-.73 1.71-1.228 2.384-.153.207-.316.268-.513.224-.05-.01-.135-.053-.188-.11-.118-.127-.187-.302-.1-.638.224-.844 1.02-2.363 1.378-2.98.133-.218.273-.444.422-.676.012-.02.018-.03.032-.05.118-.175.073-.41-.105-.523-.172-.108-.407-.065-.522.115l-.07.107c-.862 1.354-1.655 2.84-1.992 3.726-.307.805-.227 1.256-.034 1.6.197.355.468.56.82.683.172.06.426.087.576.07.667-.083 1.022-.445 1.39-1.114.712-1.298 1.29-2.725 1.62-4.015.333-1.288.333-2.158.296-2.768-.033-.537-.152-1.087-.306-1.662-.09-.336-.213-.875-.38-1.642-.52-2.423.022-3.915.642-4.717.28-.362.648-.64.915-.774 1.386-.702 2.755.07 2.88 1.455.2 2.18-1.46 3.49-1.935 3.853-.022.017-.094.075-.108.09-.132.107-.215.27-.212.453.006.32.27.573.592.568.126-.002.24-.043.334-.112.21-.13.436-.32.668-.55.448-.44.81-.928 1.117-1.492.835-1.54.783-3.13.136-4.185M19.938 6.465c0-.407-.333-.736-.743-.736-.285 0-.533.16-.657.395-.042.07-.057.127-.057.127l-.004.01-2.08 5.43c-.08.2.018.417.214.494.05.02.104.028.155.026.23-.01.327-.208.327-.208s2.744-5.16 2.776-5.23c.044-.094.07-.2.07-.31" fill="#343433"/><path d="M25.522 12.01c-.18-1.574-.66-3.08-1.426-4.478-.766-1.397-1.78-2.615-3.015-3.62-1.278-1.04-2.737-1.807-4.337-2.275-1.145-.336-2.326-.506-3.508-.506-1.32 0-2.624.21-3.88.623-1.237.408-2.397 1.002-3.448 1.77-1.022.744-1.916 1.634-2.66 2.646C5.423 2.596 9.353.407 13.546.406c1.13 0 2.28.16 3.418.493 5.364 1.572 8.79 6.52 8.618 11.815-.012-.235-.03-.47-.058-.706zm-.794 4.738l-.005.017-.005.017c-.422 1.398-1.08 2.662-1.92 3.762-2.25 2.947-5.797 4.714-9.554 4.714-1.126 0-2.27-.16-3.403-.49C4.92 23.324 1.64 19.03 1.288 14.24c-.08-1.1-.007-2.226.237-3.35l.15-.616.066-.227.005-.018.004-.016c.396-1.33 1.01-2.54 1.786-3.604 2.24-3.062 5.86-4.906 9.698-4.906 1.125 0 2.268.158 3.402.49 5.002 1.466 8.312 5.882 8.57 10.765.07 1.31-.08 2.656-.478 3.988zM12.918 26.4c-1.13 0-2.278-.158-3.417-.49-4.24-1.245-7.27-4.598-8.267-8.564l-.218-1.078c-.12-.77-.163-1.556-.125-2.35.012.28.034.556.066.834.18 1.574.658 3.08 1.425 4.477.768 1.397 1.782 2.615 3.017 3.62 1.278 1.04 2.738 1.806 4.338 2.275 1.145.336 2.325.506 3.51.506 1.317 0 2.62-.208 3.877-.622 1.237-.407 2.398-1.002 3.45-1.768 1.056-.77 1.976-1.697 2.735-2.753-2.154 3.663-6.137 5.914-10.39 5.914zM25.562 9.23c-.253-.96-.623-1.885-1.107-2.767-.77-1.404-1.79-2.627-3.03-3.636-1.283-1.046-2.75-1.814-4.355-2.285-1.15-.337-2.336-.508-3.524-.508-1.324 0-2.634.21-3.896.625-1.242.408-2.408 1.006-3.463 1.775-.064.047-.13.095-.192.143l.01-.012C2.563 5.083.33 9.132.33 13.698c0 1.558.26 3.055.74 4.45.24.758.553 1.492.94 2.198.77 1.403 1.79 2.627 3.03 3.636 1.284 1.045 2.75 1.814 4.356 2.284 1.15.338 2.336.508 3.524.508 1.324 0 2.634-.21 3.895-.625 1.243-.41 2.408-1.007 3.464-1.776.48-.35.93-.73 1.35-1.14l.004-.004c2.756-2.526 4.48-6.138 4.48-10.15 0-1.336-.19-2.628-.548-3.85z" fill="#FFF"/><g fill="#4A4A4A"><path d="M35.564 19.88c0 .845-.625 1.388-1.35 1.388-.725 0-1.35-.543-1.35-1.098v-8.62c.004-1.083-.048-2.267.466-3.15.733-1.257 1.823-1.49 3.08-1.496h1.834c1.008 0 1.41.523 1.41 1.208 0 .684-.402 1.207-1.41 1.207H37.14c-.452.016-1.012-.074-1.305.227-.27.28-.26.518-.27 1.07v1.8h1.655c1.008 0 1.41.525 1.41 1.208 0 .684-.402 1.208-1.41 1.208h-1.656v5.046M39.826 11.186c0-.805.343-1.328 1.15-1.328.805 0 1.147.523 1.147 1.328v1.027h.04c.295-1.495.88-2.37 1.834-2.355.728.012 1.262.493 1.21 1.59-.036.744-.383 1.47-1.532 1.47-.765 0-1.39.522-1.39 1.488V19.8c0 1.006-.483 1.468-1.23 1.468-.745 0-1.23-.462-1.23-1.468v-8.614M50.61 14.165v-.905c0-.827-.26-1.47-1.067-1.47-.806 0-1.067.643-1.067 1.47v.905h2.135zm-4.714.262c0-2.778.404-4.624 3.748-4.57 2.568.044 3.426 1.43 3.426 4.288 0 .986-.122 1.75-1.37 1.75h-3.224v1.108c0 1.307-.018 2.35 1.108 2.334.523-.008.928-.338.947-1.128.026-1.067.525-1.31 1.21-1.31.725 0 1.25.243 1.25 1.21 0 1.97-1.288 3.12-3.346 3.158-3.344.062-3.748-1.79-3.748-4.568v-2.273zM56.283 15.674c-1.41-1.047-1.654-1.73-1.654-2.878 0-1.972 1.39-2.938 3.364-2.938 2.62 0 3.306 1.79 3.306 2.676 0 .726-.303 1.208-1.29 1.208-.665 0-.967-.342-1.008-.946-.04-.744-.34-1.135-1.066-1.107-.505.018-.848.32-.848.844 0 .363.14.745.544 1.046l1.51 1.148c1.533 1.147 2.34 1.872 2.34 3.34 0 2.133-1.552 3.2-3.568 3.2-2.64 0-3.39-1.65-3.39-2.92 0-.925.618-1.345 1.202-1.345.907 0 1.18.522 1.26 1.55.042.462.243.895 1.07.884.644-.01.97-.362.967-1.005-.004-.485-.182-.846-.866-1.37l-1.874-1.388M63.124 8.35c0-1.007.483-1.47 1.23-1.47.745 0 1.228.463 1.228 1.47l.02 2.917h.04c.403-.946 1.35-1.41 2.297-1.41 1.37 0 2.356.846 2.356 2.698V19.8c0 1.006-.483 1.468-1.23 1.468-.744 0-1.228-.462-1.228-1.468v-6.662c0-.805-.423-1.147-.948-1.147-.785 0-1.29.584-1.29 1.953V19.8c0 1.006-.482 1.468-1.228 1.468-.745 0-1.248-.462-1.248-1.468V8.35M90.083 14.165v-.905c0-.826-.263-1.47-1.07-1.47-.804 0-1.067.644-1.067 1.47v.905h2.137zm-4.715.262c0-2.778.403-4.57 3.747-4.57 2.56 0 3.425 1.43 3.425 4.288 0 .986-.12 1.75-1.37 1.75h-3.224v1.108c0 1.307.102 2.334 1.11 2.334.522 0 .908-.416.946-1.128.056-1.063.524-1.302 1.208-1.31.67-.006 1.25.243 1.25 1.21 0 1.97-1.35 3.16-3.345 3.16-3.344 0-3.747-1.793-3.747-4.57v-2.273zM94.233 11.326c0-1.005.483-1.468 1.23-1.468.745 0 1.23.463 1.23 1.41h.04c.402-.947 1.35-1.424 2.296-1.41 1.52.023 2.357.845 2.357 2.697V19.8c0 1.006-.484 1.47-1.23 1.47s-1.228-.464-1.228-1.47v-6.662c0-.805-.425-1.147-.95-1.147-.785 0-1.288.585-1.288 1.953V19.8c0 1.006-.484 1.47-1.23 1.47s-1.23-.464-1.23-1.47v-8.474M103.556 11.326c0-1.005.484-1.468 1.23-1.468.745 0 1.23.463 1.23 1.468v6.663c0 .803.34 1.146.945 1.146.87 0 1.29-.584 1.29-1.953v-5.857c0-1.005.486-1.468 1.23-1.468.747 0 1.23.463 1.23 1.468V19.8c0 1.006-.483 1.47-1.23 1.47-.744 0-1.23-.464-1.23-1.41h-.04c-.402.946-1.35 1.41-2.296 1.41-1.37 0-2.358-.847-2.358-2.698v-7.246M72.678 9.696c0-1.188.386-2.184 1.976-2.243 1.297-.05 1.952.596 2.177 1.955l1.21 6.51h.035l1.208-6.162c.292-1.498.828-2.315 2.177-2.303 1.628.015 1.976 1.074 1.976 2.262V20.01c0 .766-.567 1.26-1.225 1.26-.66 0-1.226-.494-1.226-1.26l-.006-10.297h-.012l-2.03 10.753c-.093.42-.238.803-.878.803-.642 0-.788-.384-.88-.804L75.117 9.713H75.1l.03 10.296c0 .766-.567 1.26-1.226 1.26-.66 0-1.226-.494-1.226-1.26V9.695"/></g></g></svg>