<?xml version="1.0" encoding="UTF-8" standalone="no"?>
<svg width="15px" height="15px" viewBox="0 0 15 15" version="1.1" xmlns="http://www.w3.org/2000/svg" xmlns:xlink="http://www.w3.org/1999/xlink">
    <!-- Generator: sketchtool 39.1 (31720) - http://www.bohemiancoding.com/sketch -->
    <title>6C3BCE48-82AD-45F5-BEE3-F31B70F7F730</title>
    <desc>Created with sketchtool.</desc>
    <defs></defs>
    <g id="Homepage" stroke="none" stroke-width="1" fill="none" fill-rule="evenodd">
        <g id="0.1-Homepage---States" transform="translate(-332.000000, -624.000000)" fill="#FFFFFF">
            <g id="Group-6" transform="translate(321.000000, 614.000000)">
                <g id="icn_FilterHover" transform="translate(11.000000, 10.000000)">
                    <path d="M6.86972033,15.0003945 C6.59534955,15.0003945 6.32660368,14.9091459 6.10348211,14.7347736 C5.7978618,14.4960273 5.6222395,14.1366578 5.6222395,13.7491638 L5.6222395,9.77547481 C5.6222395,9.64485182 5.58224011,9.51985374 5.50599129,9.41423036 L0.222947454,2.02684386 C-0.0514233309,1.60310037 -0.0714230236,1.09560817 0.156698471,0.677489591 C0.383569986,0.259996005 0.820438274,0 1.29668096,0 L13.6983654,0 C14.1739831,0 14.6108514,0.259996005 14.8383479,0.677489591 C15.0652194,1.09560817 15.0458447,1.60310037 14.7877237,2.00309422 L9.4884301,9.41298038 C9.41155628,9.51922875 9.37218188,9.64422683 9.37218188,9.77547481 L9.37218188,13.4366686 C9.37218188,14.0116597 8.98281287,14.5104021 8.42469644,14.6491499 L7.17596563,14.9616451 C7.07471718,14.9872697 6.97159377,15.0003945 6.86972033,15.0003945 L6.86972033,15.0003945 Z M1.23980683,1.29998003 L6.52285066,8.68549156 C6.75159715,9.00486165 6.87222029,9.38173086 6.87222029,9.77547481 L6.87222029,13.7510387 L8.12220109,13.4372935 L8.12220109,9.77547481 C8.12220109,9.38048088 8.24344923,9.00361167 8.47344569,8.68486657 L13.7546146,1.30060502 L13.6983654,1.2499808 L1.29668096,1.2499808 L0.731064647,1.66372444 L1.23980683,1.29998003 L1.23980683,1.29998003 Z" id="Shape"></path>
                </g>
            </g>
        </g>
    </g>
</svg>