<?xml version="1.0" encoding="UTF-8" standalone="no"?>
<svg width="26px" height="24px" viewBox="0 0 26 24" version="1.1" xmlns="http://www.w3.org/2000/svg" xmlns:xlink="http://www.w3.org/1999/xlink">
    <!-- Generator: sketchtool 39.1 (31720) - http://www.bohemiancoding.com/sketch -->
    <title>94B44C5E-91CA-439E-9FDE-0481B6DC6EE2</title>
    <desc>Created with sketchtool.</desc>
    <defs></defs>
    <g id="Homepage" stroke="none" stroke-width="1" fill="none" fill-rule="evenodd">
        <g id="1.2-Homepage---Scrolled" transform="translate(-1145.000000, -66.000000)" stroke="#FFFFFF" stroke-width="0.5" fill="#F6A623">
            <g id="Group-10" transform="translate(0.000000, 38.000000)">
                <g id="Group-8" transform="translate(1146.000000, 28.000000)">
                    <path d="M10.9926919,23 C10.5536531,23 10.1236152,22.8661722 9.76658366,22.6104329 C9.27754048,22.2602808 8.99651567,21.7332194 8.99651567,21.1649098 L8.99651567,15.336986 C8.99651567,15.1454106 8.93251002,14.9620849 8.81049925,14.8071747 L0.356752903,3.97262614 C-0.0822858582,3.35115204 -0.114288684,2.60684971 0.250743543,1.99362527 C0.613775594,1.38131745 1.31283731,1 2.07490459,1 L21.9196566,1 C22.6807238,1 23.3797855,1.38131745 23.7438176,1.99362527 C24.1068497,2.60684971 24.075847,3.35115204 23.6628105,3.93779426 L15.1830619,14.8053414 C15.060051,14.9611683 14.9970454,15.144494 14.9970454,15.336986 L14.9970454,20.7065956 C14.9970454,21.5498938 14.3739904,22.2813633 13.4809116,22.4848548 L11.4827352,22.943169 C11.3207209,22.9807508 11.1557063,23 10.9926919,23 L10.9926919,23 Z M1.98389656,2.90658723 L10.4376429,13.7383859 C10.8036752,14.2067831 10.9966923,14.75951 10.9966923,15.336986 L10.9966923,21.1676597 L12.9968688,20.7075122 L12.9968688,15.336986 C12.9968688,14.7576768 13.190886,14.2049498 13.5589185,13.7374693 L22.0096645,2.90750385 L21.9196566,2.83325695 L2.07490459,2.83325695 L1.16982469,3.440065 L1.98389656,2.90658723 L1.98389656,2.90658723 Z" id="icn_FilterHover"></path>
                </g>
            </g>
        </g>
    </g>
</svg>