<?xml version="1.0" encoding="UTF-8" standalone="no"?>
<svg width="11px" height="16px" viewBox="0 0 11 16" version="1.1" xmlns="http://www.w3.org/2000/svg" xmlns:xlink="http://www.w3.org/1999/xlink">
    <!-- Generator: sketchtool 3.7 (28169) - http://www.bohemiancoding.com/sketch -->
    <title>DA431DC6-A1FC-4683-AE66-DB7E33FC7DC1</title>
    <desc>Created with sketchtool.</desc>
    <defs></defs>
    <g id="Homepage" stroke="none" stroke-width="1" fill="none" fill-rule="evenodd">
        <g id="1.1-Homepage" transform="translate(-271.000000, -601.000000)" fill="#A5AFB6">
            <g id="Field-not-focused" transform="translate(250.000000, 578.000000)">
                <g id="Location-Field">
                    <g id="Group" transform="translate(18.000000, 0.000000)">
                        <path d="M8.5,39 C7.88888889,39 7.27777778,38.0769231 7.27777778,38.0769231 C7.27777778,38.0769231 3.91666667,32.8461538 3.30647222,30.348 C3.11122222,29.78 3,29.1729231 3,28.5384615 C3,25.4796923 5.46247222,23 8.5,23 C11.5375278,23 14,25.4796923 14,28.5384615 C14,29.1729231 13.8890833,29.78 13.6938333,30.348 C13.0833333,32.8461538 9.72222222,38.0769231 9.72222222,38.0769231 C9.72222222,38.0769231 9.11111111,39 8.5,39 Z M8.5,26.3846154 C7.31872222,26.3846154 6.36111111,27.3489231 6.36111111,28.5384615 C6.36111111,29.728 7.31872222,30.6923077 8.5,30.6923077 C9.68127778,30.6923077 10.6388889,29.728 10.6388889,28.5384615 C10.6388889,27.3489231 9.68127778,26.3846154 8.5,26.3846154 Z" id="Pin_Normal"></path>
                    </g>
                </g>
            </g>
        </g>
    </g>
</svg>