<?xml version="1.0" encoding="UTF-8" standalone="no"?>
<svg width="23px" height="22px" viewBox="0 0 23 22" version="1.1" xmlns="http://www.w3.org/2000/svg" xmlns:xlink="http://www.w3.org/1999/xlink">
    <!-- Generator: sketchtool 3.7.1 (28215) - http://www.bohemiancoding.com/sketch -->
    <title>E1C66BBB-73A8-42B6-B07B-9A0211B59885</title>
    <desc>Created with sketchtool.</desc>
    <defs>
        <filter x="-50%" y="-50%" width="200%" height="200%" filterUnits="objectBoundingBox" id="filter-1">
            <feOffset dx="0" dy="1" in="SourceAlpha" result="shadowOffsetOuter1"></feOffset>
            <feGaussianBlur stdDeviation="2" in="shadowOffsetOuter1" result="shadowBlurOuter1"></feGaussianBlur>
            <feColorMatrix values="0 0 0 0 0   0 0 0 0 0   0 0 0 0 0  0 0 0 0.1 0" type="matrix" in="shadowBlurOuter1" result="shadowMatrixOuter1"></feColorMatrix>
            <feMerge>
                <feMergeNode in="shadowMatrixOuter1"></feMergeNode>
                <feMergeNode in="SourceGraphic"></feMergeNode>
            </feMerge>
        </filter>
    </defs>
    <g id="Homepage" stroke="none" stroke-width="1" fill="none" fill-rule="evenodd">
        <g id="0.1-Homepage---States" transform="translate(-303.000000, -675.000000)" fill="#46B992">
            <g id="Filter-Popover" filter="url(#filter-1)" transform="translate(291.000000, 655.000000)">
                <path d="M21.4427522,36.9627954 C21.1734691,36.9627954 20.9210163,36.8618142 20.7358842,36.6766821 L16.3263747,32.1325311 C15.9056199,31.7454367 15.8887897,31.0890594 16.2927143,30.6683046 C16.6798086,30.2475499 17.336186,30.2307197 17.7569407,30.6346442 L20.988337,32.9403802 C21.1734691,33.108682 21.4595823,33.0750217 21.611054,32.8730594 L29.2687901,23.4144931 C29.6053939,22.960078 30.2617713,22.8590969 30.7161864,23.2125308 C31.1706015,23.5491346 31.2715826,24.205512 30.9181486,24.6599271 L22.2674314,36.5420406 C22.0822993,36.7776633 21.8130163,36.929135 21.5269031,36.9459652 C21.4932427,36.9627954 21.4764125,36.9627954 21.4427522,36.9627954 L21.4427522,36.9627954 Z" id="Shape"></path>
            </g>
        </g>
    </g>
</svg>