<svg width="92" height="52" viewBox="0 0 92 52" xmlns="http://www.w3.org/2000/svg"><title>ADE28691-82B2-41BD-A759-C617CB77F31D</title><g fill="none" fill-rule="evenodd" opacity=".9"><path d="M38.748 25.828c0-9.914 9.873-18.018 22.019-18.018 12.146 0 22.107 8.104 22.107 18.018 0 9.396-9.524 17.155-20.01 17.93v5.432c0 1.293-1.747 1.896-2.534.862l-5.155-6.81c-9.437-2.07-16.427-9.139-16.427-17.414z" fill="#FCD306" fill-rule="nonzero"/><path d="M50.107 27.983c0-8.62-8.563-15.604-19.136-15.604-10.573 0-19.748 6.983-19.748 15.604 0 8.19 7.952 14.827 16.69 15.517v4.741c0 1.121 2.184 1.638 2.796.69l4.806-5.862c8.213-1.81 14.592-7.845 14.592-15.086z" fill="#FCD306" fill-rule="nonzero"/><path d="M52.728 21.862c0-11.38-11.272-20.603-25.252-20.603-13.893 0-25.864 9.224-25.864 20.603 0 10.776 10.136 19.569 22.369 20.517v6.207c0 1.552 2.534 2.155 3.495.948l6.204-7.758c10.747-2.328 19.048-10.345 19.048-19.914z" stroke="#878B87" stroke-width="2"/><path d="M39.621 21.862c0-11.38 11.272-20.603 25.253-20.603 13.893 0 25.514 9.224 25.514 20.603 0 10.776-11.359 19.569-22.718 20.517v6.207c0 1.552-2.185 2.155-3.146.948l-6.029-7.758C47.748 39.448 39.621 31.43 39.621 21.862zM60.243 18H80.34M60.243 22H80.34M60.243 26H80.34M18.214 15.397a8.257 8.257 0 0 1 1.922-1.035c1.048-.345 2.272-.172 3.233.431.874.69 1.398 1.81 1.136 2.931-.262 1.035-1.136 1.897-2.097 2.5-.961.604-1.923 1.293-2.447 2.242-.611.948-.524 2.327.35 3.017M30 17.81v9.483M30 30.741v1.725" stroke="#878B87" stroke-width="2"/></g></svg>