<svg width="88" height="65" viewBox="0 0 88 65" xmlns="http://www.w3.org/2000/svg"><title>3111D3DF-E8E7-46B4-BAFB-F97EBA16D8FD</title><g transform="translate(1)" fill="none" fill-rule="evenodd"><path d="M30.9 55.776c2.65 5.194 7.949 8.797 14.308 8.797 8.903 0 15.792-7.207 15.792-16.11 0-2.967-.848-5.617-2.332-8.055-1.272 3.71-2.861 7.631-6.04 9.963-3.074 2.226-6.996 2.756-10.811 2.756-2.332 0-4.77-.106-6.996.424-1.483.424-2.967 1.166-3.921 2.225z" fill="#FCD306" fill-rule="nonzero"/><path d="M47.3 31.7V11.9h-8v19.8c-7 2.1-11.5 8.1-11.5 15.3 0 8.8 7 16 15.8 16S59 55.8 59 47c0-7.2-4.7-13.2-11.7-15.3zM43 20.4V.4" stroke="#878B87" stroke-width="2"/><path d="M77.448 46h-.444c-2.074 0-3.704-1.078-3.704-2.449V12.4h8v31.151c0 1.371-1.778 2.449-3.852 2.449z" fill="#FCD306" fill-rule="nonzero"/><path d="M74.3 52.8h-.5c-2.4 0-4.3-1.9-4.3-4.3v-36h9.2v36c0 2.3-2 4.3-4.4 4.3zM65.8 11h17" stroke="#878B87" stroke-width="2"/><path stroke="#878B87" stroke-width="2" d="M65.8 21.9h19.5v41.5"/><circle fill="#FCD306" fill-rule="nonzero" cx="13.2" cy="53.7" r="9.3"/><circle stroke="#878B87" stroke-width="2" cx="9.3" cy="53.7" r="9.3"/><path d="M16.465 34.27s-4.189 1.955-3.77 8c0 0 3.84-.979 3.77-8z" fill="#878B87" fill-rule="nonzero"/><path d="M29.1 51.2c2.7-2.1 6.1-3.3 9.5-3.3 3.2 0 6.5.9 9.6.3 2.4-.5 4.6-2 5.9-4.1 1.3-2.1 2.1-4.7 1.5-7" stroke="#878B87" stroke-width="2"/><circle fill="#FCD306" fill-rule="nonzero" cx="41.3" cy="42.5" r="1.9"/><circle fill="#FCD306" fill-rule="nonzero" cx="43.7" cy="36.4" r="1.1"/><circle fill="#FCD306" fill-rule="nonzero" cx="43.5" cy="30.1" r="1"/></g></svg>