<svg width="68" height="66" viewBox="0 0 68 66" xmlns="http://www.w3.org/2000/svg"><title>0A87D878-2083-4223-B6E8-EC9AD2C35A07</title><g fill="none" fill-rule="evenodd"><g transform="translate(1 17.485)"><path d="M20.576 11.055a5.098 5.098 0 0 0 2.136-5.14c-.388-1.842-1.941-3.394-3.883-3.685-.194 0-.388-.097-.582-.097-2.912-.194-5.144 2.522-4.853 5.43l.388 2.91 6.794.582zM35.815 11.055c-1.068-2.425 0-5.14 2.426-6.207 2.427-1.066 5.144 0 6.212 2.425l-1.553 3.49-7.085.292z" fill="#FCD306" fill-rule="nonzero"/><path d="M52.703 47.418H13.297c-4.853 0-9.026-3.588-9.609-8.436l-3.3-25.31c-.194-1.745 1.165-3.296 2.912-3.296h59.497c1.747 0 3.106 1.551 2.912 3.297l-3.3 25.309c-.68 4.848-4.853 8.436-9.706 8.436z" stroke="#878B87" stroke-width="2"/><g stroke="#878B87" stroke-width="2"><path d="M33 37.915a2.153 2.153 0 0 1-2.135-2.133v-15.03c0-1.164.97-2.134 2.135-2.134 1.165 0 2.135.97 2.135 2.134v15.127c-.097 1.163-.97 2.036-2.135 2.036zM22.324 37.915a2.153 2.153 0 0 1-2.136-2.133v-15.03c0-1.164.97-2.134 2.136-2.134 1.164 0 2.135.97 2.135 2.134v15.127c-.097 1.163-.97 2.036-2.135 2.036zM43.676 37.915a2.153 2.153 0 0 1-2.135-2.133v-15.03c0-1.164.97-2.134 2.135-2.134 1.165 0 2.136.97 2.136 2.134v15.127c-.097 1.163-.97 2.036-2.136 2.036z"/></g><path d="M35.62 10.57c-1.261-2.812.098-6.11 2.912-7.37 2.815-1.26 6.115.097 7.377 2.91M44.065 10.764a5.63 5.63 0 0 1 5.63-5.625 5.63 5.63 0 0 1 5.629 5.625" stroke="#878B87" stroke-width="2"/><path d="M54.45 8.824l4.368-7.079c.776-1.26 2.426-1.648 3.688-.97 1.359.777 1.844 2.522.97 3.88l-3.882 6.109M12.715 10.085l-5.339-8.34C6.6.485 4.95.097 3.688.775c-1.359.777-1.844 2.522-.97 3.88L6.6 10.764M9.997 5.14C10.58 2.52 12.91.581 15.627.581 18.828.582 21.45 3.2 21.45 6.4c0 1.552-.582 2.91-1.553 3.976" stroke="#878B87" stroke-width="2"/><ellipse stroke="#878B87" stroke-width="2" transform="rotate(-45 25.29 6.96)" cx="25.29" cy="6.96" rx="3.397" ry="3.394"/><path d="M5.144 15.903l2.912 22.012M28.438 5.915s2.427-6.303 9.415-2.327" stroke="#878B87" stroke-width="2"/></g><g stroke="#878B87" stroke-width="2" stroke-linecap="round"><path d="M33.382 1.679v4.848M21.965 9.436l2.135 2.716M47.394 9.436l-2.135 2.716"/></g></g></svg>