<svg width="77" height="62" viewBox="0 0 77 62" xmlns="http://www.w3.org/2000/svg"><title>3E25CFC6-78AA-414B-A996-B053AA7E4FE5</title><g transform="translate(1 1)" fill="none" fill-rule="evenodd"><ellipse fill="#FCD306" fill-rule="nonzero" cx="44.577" cy="30.577" rx="28.423" ry="28.423"/><circle stroke="#878B87" stroke-width="2" cx="37.5" cy="30.231" r="29.538"/><path d="M67.73 27c.462-.115 1.04-.23 1.616-.23 2.885 0 5.077 2.307 5.077 5.076 0 2.77-2.308 5.077-5.077 5.077-.808 0-1.5-.23-2.192-.461M7.615 27c-.461-.115-1.038-.23-1.615-.23-2.885 0-5.077 2.307-5.077 5.076 0 2.77 2.308 5.077 5.077 5.077.808 0 1.5-.23 2.192-.461" stroke="#878B87" stroke-width="2"/><g transform="translate(26.538 20.77)" stroke="#878B87" stroke-width="2"><ellipse cx="2.423" cy="2.654" rx="2.192" ry="2.192"/><ellipse cx="19.615" cy="2.654" rx="2.192" ry="2.192"/></g><path d="M24.115 37.846c2.077 4.616 7.385 9.346 13.5 9.346 6.116 0 11.539-4.73 13.5-9.346" stroke="#878B87" stroke-width="2"/></g></svg>