<svg width="74" height="65" viewBox="0 0 74 65" xmlns="http://www.w3.org/2000/svg"><title>8AA3383F-ED03-418E-86C2-AAB644C69390</title><g transform="translate(1 1)" fill="none" fill-rule="evenodd"><rect stroke="#878B87" stroke-width="1.85" y="23.304" width="71" height="13" rx="2"/><path d="M71.175 62.565c-1.25-.13-3.778-.49-6.73-1.785-4.02-1.763-5.598-6.314-2.96-8.773 1.102-1.028 2.287-1.364 3.491-1.194 1.676.236 3.47 1.563 3.987 3.484.968 3.59.018 4.546 1.328 6.741.265.446.699.833 1.066 1.117.445.343.27.457-.182.41z" stroke="#878B87" stroke-width="1.85"/><path d="M43.108 19.444c-2.146-5.016-8.627-18.368-6.53-19.406 1.49-.745 6.845 9.768 10.86 16.08 4.008 6.312 13.807 26.84 14.839 28.693 1.026 1.859-.988 3.407-2.108 3.87-1.12.465-1.77.927-3.45.094-1.679-.838-11.466-24.315-13.61-29.331z" fill="#FFF"/><path d="M48.825 25.635c-1.8-3.934-7.238-14.405-5.48-15.22 1.252-.584 5.744 7.661 9.112 12.612 3.363 4.95 11.585 21.05 12.45 22.503.861 1.457-.828 2.672-1.768 3.036-.94.363-1.485.726-2.894.073-1.41-.658-9.62-19.07-11.42-23.004z" fill="#FCD306"/><path d="M43.108 19.444c-2.146-5.016-8.627-18.368-6.53-19.406 1.49-.745 6.845 9.768 10.86 16.08 4.008 6.312 13.807 26.84 14.839 28.693 1.026 1.859-.988 3.407-2.108 3.87-1.12.465-1.77.927-3.45.094-1.679-.838-11.466-24.315-13.61-29.331zM12.274 56.897l-7.456 5.052c-1.004.682-1.713.25-1.574-.954l.995-8.644c.138-1.204 1.115-1.696 2.17-1.094l5.771 3.297c1.055.604 1.098 1.663.094 2.343z" stroke="#878B87" stroke-width="1.85"/><path d="M13.41 51.243l-4.198-2.398a1.596 1.596 0 0 1-.592-2.187l19.437-33.693a1.618 1.618 0 0 1 2.202-.59l4.198 2.392a1.608 1.608 0 0 1 .591 2.191L15.611 50.654a1.625 1.625 0 0 1-2.202.59z" fill="#FFF"/><path d="M11.242 51.458c-.7-.4-.947-1.297-.54-1.994l17.728-30.73a1.475 1.475 0 0 1 2.008-.538l3.828 2.182c.7.405.941 1.302.54 1.998L17.078 53.108a1.482 1.482 0 0 1-2.008.538l-3.828-2.188z" fill="#FCD306"/><path d="M13.41 51.243l-4.198-2.398a1.596 1.596 0 0 1-.592-2.187l19.437-33.693a1.618 1.618 0 0 1 2.202-.59l4.198 2.392a1.608 1.608 0 0 1 .591 2.191L15.611 50.654a1.625 1.625 0 0 1-2.202.59z" stroke="#878B87" stroke-width="1.85"/></g></svg>