<svg xmlns="http://www.w3.org/2000/svg" width="15" height="15" viewBox="0 0 15 15">
    <path fill="#603B6D" fill-rule="nonzero" d="M8.35 11.248l.004.079c.016.333.072.632.105.73.058.18.084.373.144.538.304.84.628 1.458.628 1.722 0 .67-.605.683-.605.683H6.374s-.605-.013-.605-.683c0-.264.324-.881.628-1.722.06-.165.086-.359.144-.537a3.461 3.461 0 0 0 .108-.81 3.79 3.79 0 0 1-2.899 1.329C1.679 12.577 0 10.95 0 8.943 0 6.937 1.679 5.31 3.75 5.31c.147 0 .293.008.436.024a3.528 3.528 0 0 1-.436-1.7C3.75 1.626 5.429 0 7.5 0c2.071 0 3.75 1.627 3.75 3.633 0 .615-.158 1.194-.436 1.701a3.91 3.91 0 0 1 .436-.024c2.071 0 3.75 1.627 3.75 3.633 0 2.007-1.679 3.634-3.75 3.634a3.79 3.79 0 0 1-2.9-1.33z"/>
</svg>
