<?xml version="1.0" encoding="UTF-8" standalone="no"?>
<svg width="112px" height="112px" viewBox="0 0 112 112" version="1.1" xmlns="http://www.w3.org/2000/svg" xmlns:xlink="http://www.w3.org/1999/xlink">
    <!-- Generator: sketchtool 40.1 (33804) - http://www.bohemiancoding.com/sketch -->
    <title>A623CABA-53BC-4EBE-9654-52B531FC395C</title>
    <desc>Created with sketchtool.</desc>
    <defs></defs>
    <g id="Checkout" stroke="none" stroke-width="1" fill="none" fill-rule="evenodd">
        <g id="4.0-Checkout---States" transform="translate(-442.000000, -1130.000000)" stroke="#E85826" stroke-width="2">
            <g id="icn_StatusActive3" transform="translate(443.000000, 1131.000000)">
                <g id="Group-29" fill="#FFFFFF">
                    <circle id="Oval-119-Copy-4" cx="55" cy="55" r="55"></circle>
                </g>
                <path d="M32,66 C32,70.419 35.581,74 40,74 L70,74 C74.418,74 78,70.419 78,66 L80,66 C82.209,66 84,64.209 84,62 L26,62 C26,64.209 27.791,66 30,66 L74,66" id="Stroke-1" stroke-linecap="round" stroke-linejoin="round"></path>
                <path d="M46,48 C46,48 48,47 48,45 C48,43 46,43 46,41 C46,39 48,38 48,38" id="Stroke-3" stroke-linecap="round" stroke-linejoin="round"></path>
                <path d="M62,48 C62,48 64,47 64,45 C64,43 62,43 62,41 C62,39 64,38 64,38" id="Stroke-5" stroke-linecap="round" stroke-linejoin="round"></path>
                <path d="M54,32 C54,32 56,33 56,35 C56,37 54,37 54,39 C54,41 56,41 56,43 C56,45 54,46 54,46" id="Stroke-7" stroke-linecap="round" stroke-linejoin="round"></path>
                <path d="M77.2324,57.9961 C76.6834,57.3851 75.8864,57.0001 75.0004,57.0001 C74.4624,57.0001 73.9654,57.1531 73.5294,57.4001 C72.9984,56.5611 72.0664,56.0001 71.0004,56.0001 C70.6054,56.0001 70.2294,56.0811 69.8844,56.2201 C69.5394,54.9441 68.3844,54.0001 67.0004,54.0001 C65.7084,54.0001 64.6164,54.8211 64.1944,55.9671 C63.6464,55.3761 62.8694,55.0001 62.0004,55.0001 C61.6404,55.0001 61.3004,55.0741 60.9804,55.1891 C60.9854,55.1261 61.0004,55.0651 61.0004,55.0001 C61.0004,53.3431 59.6564,52.0001 58.0004,52.0001 C56.7084,52.0001 55.6164,52.8211 55.1944,53.9671 C54.6464,53.3761 53.8694,53.0001 53.0004,53.0001 C51.9554,53.0001 51.0374,53.5351 50.5004,54.3461 C49.9624,53.5351 49.0454,53.0001 48.0004,53.0001 C46.4134,53.0001 45.1274,54.2361 45.0204,55.7961 C44.4864,55.3061 43.7814,55.0001 43.0004,55.0001 C42.4624,55.0001 41.9654,55.1531 41.5294,55.4001 C40.9974,54.5611 40.0674,54.0001 39.0004,54.0001" id="Stroke-9" stroke-linecap="round" stroke-linejoin="round"></path>
                <path d="M26,52 L40,58" id="Stroke-11" stroke-linecap="round" stroke-linejoin="round"></path>
            </g>
        </g>
    </g>
</svg>