<?xml version="1.0" encoding="UTF-8" standalone="no"?>
<svg width="112px" height="112px" viewBox="0 0 112 112" version="1.1" xmlns="http://www.w3.org/2000/svg" xmlns:xlink="http://www.w3.org/1999/xlink">
    <!-- Generator: sketchtool 40.1 (33804) - http://www.bohemiancoding.com/sketch -->
    <title>127C6361-57F3-4D10-95E8-C73EBA528482</title>
    <desc>Created with sketchtool.</desc>
    <defs></defs>
    <g id="Checkout" stroke="none" stroke-width="1" fill="none" fill-rule="evenodd">
        <g id="4.0-Checkout---States" transform="translate(-442.000000, -1315.000000)" stroke-width="2">
            <g id="icn_StatusInactive3" transform="translate(443.000000, 1316.000000)">
                <circle id="Oval-119-Copy-5" stroke="#E7E9E9" fill="#FFFFFF" cx="55" cy="55" r="55"></circle>
                <g id="Page-1-Copy-3" opacity="0.4" transform="translate(28.000000, 31.000000)" stroke-linecap="round" stroke-linejoin="round">
                    <path d="M6,34 C6,38.419 9.581,42 14,42 L44,42 C48.418,42 52,38.419 52,34 L54,34 C56.209,34 58,32.209 58,30 L0,30 C0,32.209 1.791,34 4,34 L48,34" id="Stroke-1" stroke="#9B9B9B"></path>
                    <path d="M20,16 C20,16 22,15 22,13 C22,11 20,11 20,9 C20,7 22,6 22,6" id="Stroke-3" stroke="#9B9B9B"></path>
                    <path d="M36,16 C36,16 38,15 38,13 C38,11 36,11 36,9 C36,7 38,6 38,6" id="Stroke-5" stroke="#9B9B9B"></path>
                    <path d="M28,0 C28,0 30,1 30,3 C30,5 28,5 28,7 C28,9 30,9 30,11 C30,13 28,14 28,14" id="Stroke-7" stroke="#9B9B9B"></path>
                    <path d="M51.2324,25.9961 C50.6834,25.3851 49.8864,25.0001 49.0004,25.0001 C48.4624,25.0001 47.9654,25.1531 47.5294,25.4001 C46.9984,24.5611 46.0664,24.0001 45.0004,24.0001 C44.6054,24.0001 44.2294,24.0811 43.8844,24.2201 C43.5394,22.9441 42.3844,22.0001 41.0004,22.0001 C39.7084,22.0001 38.6164,22.8211 38.1944,23.9671 C37.6464,23.3761 36.8694,23.0001 36.0004,23.0001 C35.6404,23.0001 35.3004,23.0741 34.9804,23.1891 C34.9854,23.1261 35.0004,23.0651 35.0004,23.0001 C35.0004,21.3431 33.6564,20.0001 32.0004,20.0001 C30.7084,20.0001 29.6164,20.8211 29.1944,21.9671 C28.6464,21.3761 27.8694,21.0001 27.0004,21.0001 C25.9554,21.0001 25.0374,21.5351 24.5004,22.3461 C23.9624,21.5351 23.0454,21.0001 22.0004,21.0001 C20.4134,21.0001 19.1274,22.2361 19.0204,23.7961 C18.4864,23.3061 17.7814,23.0001 17.0004,23.0001 C16.4624,23.0001 15.9654,23.1531 15.5294,23.4001 C14.9974,22.5611 14.0674,22.0001 13.0004,22.0001" id="Stroke-9" stroke="#9B9B9B"></path>
                    <path d="M0,20 L14,26" id="Stroke-11" stroke="#9B9B9B"></path>
                    <path d="M51.2324,25.9961 C50.6834,25.3851 49.8864,25.0001 49.0004,25.0001 C48.4624,25.0001 47.9654,25.1531 47.5294,25.4001 C46.9984,24.5611 46.0664,24.0001 45.0004,24.0001 C44.6054,24.0001 44.2294,24.0811 43.8844,24.2201 C43.5394,22.9441 42.3844,22.0001 41.0004,22.0001 C39.7084,22.0001 38.6164,22.8211 38.1944,23.9671 C37.6464,23.3761 36.8694,23.0001 36.0004,23.0001 C35.6404,23.0001 35.3004,23.0741 34.9804,23.1891 C34.9854,23.1261 35.0004,23.0651 35.0004,23.0001 C35.0004,21.3431 33.6564,20.0001 32.0004,20.0001 C30.7084,20.0001 29.6164,20.8211 29.1944,21.9671 C28.6464,21.3761 27.8694,21.0001 27.0004,21.0001 C25.9554,21.0001 25.0374,21.5351 24.5004,22.3461 C23.9624,21.5351 23.0454,21.0001 22.0004,21.0001 C20.4134,21.0001 19.1274,22.2361 19.0204,23.7961 C18.4864,23.3061 17.7814,23.0001 17.0004,23.0001 C16.4624,23.0001 15.9654,23.1531 15.5294,23.4001 C14.9974,22.5611 14.0674,22.0001 13.0004,22.0001" id="Stroke-13" stroke="#E85826"></path>
                </g>
            </g>
        </g>
    </g>
</svg>