<svg width="115" height="94" viewBox="0 0 115 94" xmlns="http://www.w3.org/2000/svg"><title>CCF80C13-63C8-4FCA-A57E-E4948AAB538F</title><g fill="none" fill-rule="evenodd"><path d="M61.97 49.91a1.8 1.8 0 0 1-.237-.014 38.518 38.518 0 0 0-4.787-.299c-1.03 0-1.856-.83-1.856-1.859 0-1.028.826-1.86 1.856-1.86 1.763 0 3.524.11 5.251.326a1.859 1.859 0 0 1 1.61 2.078 1.853 1.853 0 0 1-1.836 1.628z" fill="#000" fill-rule="nonzero"/><path d="M105.946 85.521H9.062a1.873 1.873 0 0 1-1.364-.592 1.88 1.88 0 0 1-.493-1.401C9.09 57.231 31.18 36.631 57.504 36.631c26.317 0 48.413 20.6 50.29 46.897a1.848 1.848 0 0 1-.492 1.4c-.347.38-.84.593-1.356.593z" fill="#FCD306" fill-rule="nonzero"/><path d="M10.747 81.903c1.686-23.53 24.263-41.961 47.816-41.961 23.548 0 43.319 18.432 44.999 41.96.032.461-92.848.461-92.815 0z" fill="#FFF" fill-rule="nonzero"/><path d="M94.69 73.919c-.76 0-1.479-.475-1.747-1.236-4.242-11.935-14.06-20.973-26.266-24.182a1.858 1.858 0 0 1-1.328-2.27c.262-.996 1.262-1.605 2.271-1.326 13.387 3.518 24.163 13.439 28.82 26.53a1.86 1.86 0 0 1-1.75 2.484z" stroke="#FFF" stroke-width="1.5" fill="#FCD306" fill-rule="nonzero"/><path d="M114.105 91.277a1.999 1.999 0 0 1-2.001 1.998H2.889c-1.105 0-2-.9-2-1.998V83.8c0-1.103.894-1.998 2-1.998h109.215c1.105 0 2 .9 2 1.998v7.476zM58.503 39.285c-3.343 0-6.058-2.723-6.058-6.069 0-3.344 2.715-6.067 6.058-6.067 3.337 0 6.06 2.723 6.06 6.067 0 3.346-2.723 6.069-6.06 6.069z" fill="#FCD306" fill-rule="nonzero"/><path d="M58.503 30.372a2.848 2.848 0 0 0-2.84 2.844 2.848 2.848 0 0 0 2.84 2.845 2.848 2.848 0 0 0 2.842-2.845 2.849 2.849 0 0 0-2.842-2.844z" fill="#FFF"/><path d="M25.14 40.517c-.443 0-.886-.16-1.242-.48-.13-.116-3.118-2.869-3.212-6.852-.066-2.51.994-4.873 3.148-7.027 4.532-4.538.152-9.262-.036-9.459a1.866 1.866 0 0 1 .066-2.629 1.85 1.85 0 0 1 2.625.066c2.458 2.596 5.62 8.995-.03 14.652-1.398 1.398-2.087 2.836-2.06 4.281.044 2.376 1.982 4.198 2.003 4.216a1.87 1.87 0 0 1 .109 2.625c-.372.4-.872.607-1.372.607zM41.158 27.753c-.442 0-.885-.16-1.241-.48-.122-.116-3.11-2.868-3.212-6.852-.059-2.509 1-4.873 3.147-7.026 4.533-4.539.161-9.263-.028-9.46a1.854 1.854 0 0 1 .066-2.628 1.851 1.851 0 0 1 2.625.066c2.458 2.596 5.612 8.994-.037 14.652-1.392 1.398-2.087 2.837-2.059 4.28.043 2.376 1.98 4.199 2.002 4.216.746.697.805 1.87.116 2.626-.37.4-.872.606-1.379.606zM73.205 27.753a1.85 1.85 0 0 1-1.24-.48c-.131-.116-3.12-2.868-3.214-6.852-.065-2.509.994-4.873 3.149-7.026 4.532-4.539.152-9.263-.037-9.46a1.866 1.866 0 0 1 .066-2.628 1.851 1.851 0 0 1 2.625.066c2.458 2.596 5.62 8.994-.03 14.652-1.398 1.398-2.087 2.837-2.059 4.28.044 2.376 1.981 4.199 2.002 4.216a1.87 1.87 0 0 1 .11 2.626c-.373.4-.873.606-1.372.606zM89.224 40.4c-.443 0-.885-.16-1.242-.48-.122-.116-3.11-2.868-3.212-6.852-.058-2.509 1.001-4.873 3.149-7.026 4.532-4.539.16-9.263-.03-9.46a1.854 1.854 0 0 1 .066-2.628 1.85 1.85 0 0 1 2.625.066c2.459 2.596 5.613 8.995-.036 14.652-1.393 1.398-2.088 2.837-2.06 4.281.044 2.375 1.981 4.198 2.002 4.215a1.87 1.87 0 0 1 .116 2.626c-.37.4-.87.606-1.378.606z" fill="#FCD306" fill-rule="nonzero"/></g></svg>