<svg width="58" height="80" viewBox="0 0 58 80" xmlns="http://www.w3.org/2000/svg"><title>03D536D3-F8DC-42F0-B759-1F0431887B7A</title><g fill-rule="nonzero" fill="none"><path d="M52.985 43.138c2.655-4.423 4.13-9.584 4.13-15.187C56.82 13.206 45.167.968 30.417.084 13.898-.948.032 12.174.032 28.54c0 5.308 1.476 10.321 4.13 14.745l21.24 34.207c1.476 2.507 5.163 2.507 6.638 0l20.945-34.355c-.148.148-.148.148 0 0z" fill="#FCD306"/><ellipse fill="#FFF" cx="28.5" cy="27.067" rx="15.635" ry="15.629"/><path d="M28.5 39.452c-6.785 0-12.39-5.603-12.39-12.385 0-6.783 5.605-12.386 12.39-12.386.59 0 1.18.442 1.18 1.18 0 .737-.442 1.18-1.18 1.18-5.605 0-10.177 4.57-10.177 10.173S22.895 37.388 28.5 37.388c.59 0 1.18.442 1.18 1.18 0 .737-.59.884-1.18.884z" fill="#FCD306"/></g></svg>