<svg width="48" height="81" viewBox="0 0 48 81" xmlns="http://www.w3.org/2000/svg"><title>CB115F2C-1795-4BAC-AFC8-1808EAF9CE7F</title><g fill-rule="nonzero" fill="none"><path d="M47.573 65.448v15.281H.427V65.448c0-7.41 3.722-14.201 9.305-17.597l9.305-5.557c.93-.617.93-2.006 0-2.47l-9.305-5.556C3.994 30.872.427 24.08.427 16.67V.617h47.146v16.054c0 7.409-3.257 14.2-8.995 17.597l-8.995 5.402c-.93.618-.93 2.007 0 2.47l8.995 5.402c5.583 3.705 8.995 10.497 8.995 17.906z" fill="#FCD306"/><path d="M11.748 74.4h24.504c0-3.858-1.551-7.563-4.343-10.341l-7.754-7.41-7.6 7.101c-2.946 2.779-4.497 6.483-4.497 10.496v.155h-.31z" fill="#FFF"/><path fill="#FFF" d="M23.69 18.832h.62v42.603h-.62z"/><path d="M5.855 4.63H42.3v10.188c0 5.094-2.171 9.88-6.048 13.12l-12.097 9.725-11.786-9.878c-4.033-3.242-6.514-8.181-6.514-13.43V4.631z" fill="#FFF"/><path d="M9.267 7.41c-.465 0-.93.308-.93.925v3.705c0 6.483 3.101 11.886 9.15 16.208.31.308.93.154 1.24-.155.31-.463.155-.926-.155-1.235C12.989 23 10.197 18.06 10.197 12.04V8.335c0-.617-.31-.926-.93-.926zM23.38 61.28c-.155 0-.466 0-.62.155-6.514 5.402-7.445 9.416-7.445 9.57 0 .463.155.772.62.926.466 0 .776-.154.931-.617 0-.155.776-3.705 6.824-8.644.31-.31.31-.772.155-1.081-.155-.309-.31-.309-.465-.309z" fill="#FCD306"/></g></svg>